<?xml version="1.0" standalone="no"?>
<svg viewBox="-350 -150 1500 1500" style="width: 390px; height: 390px; justify-content: center; align-self: center; transform: scale(1, 1);" xmlns="http://www.w3.org/2000/svg"><rect x="-350" y="-150" width="100%" height="100%" fill="#6dd47e" rx="30"></rect><g transform="rotate(0 421.7973175048828 562.5660171508789)"><g transform="translate(0 459)"><path d="M757.879 690.381C756.284 660.747 754.324 631.136 751.978 601.551C747.303 542.621 741.182 483.645 730.996 425.392C720.947 367.916 706.883 312.027 686.621 257.258C677.221 231.848 667.041 210.171 652.273 187.329C638.309 165.732 620.49 151.098 598.29 138.061C578.288 126.315 555.051 105.935 535.867 92.7806C527.858 87.2896 511.38 87.6556 505.888 79.5326C498.696 68.8956 503.359 52.6146 496.109 42.0126C487.822 29.8906 476.212 20.4736 463.12 13.6326C448.831 3.95663 432.001 -0.423374 415.126 0.179626C390.242 -1.32937 365.18 6.59263 349.204 26.8466C341.232 36.9546 336.577 48.6166 335.933 61.5296C335.765 64.8886 336.844 67.5366 338.62 69.4486C337.567 70.8566 336.519 72.2656 335.478 73.6826C332.21 68.8426 324.572 66.2706 319.482 69.9236C302.83 81.8766 284.833 91.3806 265.838 98.3476C261.394 96.2446 256.014 97.2186 252.207 100.652C250.662 102.044 249.023 103.235 247.31 104.246C240.267 106.155 233.115 107.75 225.857 108.983C223.585 109.368 221.66 110.658 220.2 112.397C218.037 110.375 215.064 109.404 211.744 110.67C173.409 125.283 137.207 147.984 109.69 178.74C79.2037 212.813 63.1917 255.198 51.0017 298.622C37.8057 345.629 29.3727 393.806 22.2897 442.064C15.1127 490.961 8.04369 540.049 3.10569 589.229C0.326692 616.905 -0.733308 644.832 0.524692 672.63C1.15169 686.522 2.42069 700.37 4.44169 714.13C4.91269 717.349 5.40569 721.057 6.19969 724.758C3.78669 724.289 0.912692 726.329 1.40169 729.594C4.80769 752.335 32.3017 758.959 51.2637 761.577C82.2807 765.86 113.459 768.235 144.774 768.418C175.547 768.597 206.315 766.622 237.024 764.853C268.508 763.04 299.991 761.218 331.474 759.372C457.613 751.977 583.759 744.662 709.899 737.264C721.423 736.588 734.582 735.673 744.453 728.989C757.984 719.825 758.68 705.263 757.879 690.381L757.879 690.381Z" transform="translate(43.00041 -41.99982)" fill="#FFFFFF" stroke="none"></path><path d="M353.236 0.226086C353.473 -0.180914 354.101 0.000279917 354.109 0.463086C354.23 7.64369 352.99 14.9414 351.767 22.1376C351.348 24.6 350.932 27.0504 350.572 29.4801C349.157 39.0441 348.703 49.1391 346.656 58.6011C346.614 59.0419 346.529 59.4763 346.408 59.9028L346.31 60.2271C345.446 62.8781 343.199 65.1251 340.442 65.8271C341.309 70.6311 342.126 75.4431 342.813 80.2811C343.993 88.5968 345.07 96.9248 346.129 105.255L347.397 115.253C348.594 124.675 349.758 134.101 350.909 143.528C353.836 144.752 356.823 145.762 359.882 146.637C366.927 148.653 374.143 149.473 381.413 150.186C396.219 151.638 411.138 152.311 425.995 153.136L429.178 153.315C445.882 154.272 462.677 154.442 479.339 152.728C487.601 151.878 495.798 150.452 503.855 148.431C507.949 147.404 511.928 145.87 516.014 144.866C517.369 144.533 518.58 143.765 519.938 142.945C520.541 142.183 521.387 141.606 522.489 141.383L522.788 141.331L523.083 141.288L523.185 141.242L523.177 141.274C524.013 141.161 524.807 141.162 525.556 141.264C525.854 133.914 526.177 126.564 526.582 119.216C526.811 115.057 527.125 110.861 527.441 106.644C528.623 90.8476 529.826 74.7689 526.664 59.3281C526.53 58.6701 527.425 58.4381 527.658 59.0541C534.512 77.1114 534.719 96.6403 534.922 115.795C534.952 118.61 534.982 121.417 535.032 124.21C535.353 141.854 535.247 159.509 535.141 177.159L535.141 177.248C535.119 180.892 535.097 184.537 535.079 188.181C536.606 188.831 537.968 189.712 539.047 190.948C541.202 193.418 541.822 197.712 539.047 200.096C537.817 201.153 536.456 201.887 535.012 202.396C534.935 220.919 534.804 239.444 534.618 257.968C538.141 260.689 538.47 267.15 534.485 269.835C533.822 329.823 532.732 389.813 531.828 449.792L529.934 575.63C529.682 592.396 529.264 609.161 529.114 625.925L529.233 625.972L529.653 626.166C530.358 626.498 531.409 627.034 531.626 627.582C531.683 627.726 531.698 627.824 531.691 627.898C532.847 628.06 533.992 628.606 534.983 629.546C537.429 631.87 536.932 635.373 534.983 637.74L534.462 638.373C533.247 639.848 530.94 640.416 529.056 640.116C529.063 643.51 529.074 646.904 529.085 650.299C529.108 657.368 529.132 664.438 529.109 671.507C529.099 674.703 529.05 677.899 528.995 681.095L528.863 688.758C528.776 693.13 528.388 698.688 523.909 700.652C518.856 702.869 514.325 701.053 512.279 695.921C511.725 694.531 511.844 693.236 512.046 691.862C512.02 690.998 511.948 690.076 511.876 689.156C511.777 687.877 511.677 686.602 511.7 685.488L511.867 677.499C511.893 676.267 511.943 675.036 511.978 673.804L511.832 673.819C498.225 674.48 484.546 674.395 470.891 674.311C466.528 674.284 462.168 674.257 457.814 674.255L449.815 674.266C443.142 674.272 436.454 674.236 429.79 673.981L427.292 673.875C422.303 673.641 417.056 673.566 411.884 673.12C412.543 678.429 413.159 683.742 413.708 689.06C414.228 694.103 409.023 698.388 404.38 698.388C398.866 698.388 395.712 694.054 395.052 689.06C391.936 665.504 390.661 641.728 387.684 618.157C385.018 597.045 382.706 575.885 380.356 554.733L379.57 547.682C370.97 470.706 362.62 393.701 354.633 316.658L350.915 280.643C347.159 244.343 343.381 208.041 340.195 171.688C338.373 150.904 336.694 130.116 335.114 109.312C333.955 94.0281 333.227 78.8291 332.753 63.5751C330.884 61.6521 329.947 58.8441 330.775 55.9441C331.259 54.2521 331.822 52.5691 332.416 50.8891C332.379 49.2381 332.34 47.5881 332.308 45.9351C332.278 44.3711 333.866 43.5661 335.137 43.8251C337.447 38.2321 339.991 32.6871 342.114 27.1481C345.55 18.1821 348.382 8.52109 353.236 0.226086ZM504.361 17.1903C504.06 16.6193 503.145 16.7583 502.99 17.3693C502.082 20.9491 502.348 24.958 502.6 28.7494C502.654 29.5556 502.707 30.352 502.748 31.1323C503.018 36.3133 503.851 41.4823 504.786 46.5813C506.701 57.0323 509.866 67.2583 513.717 77.1483C517.447 86.7323 531.64 80.4833 526.571 71.7293C521.453 62.8883 517.16 53.7173 513.521 44.1733C511.779 39.6053 510.306 34.9473 508.727 30.3233C507.26 26.0223 506.474 21.2043 504.361 17.1903ZM333.236 35.7456C333.734 35.5956 333.652 34.8246 333.112 34.8246C326.176 34.9006 319.89 36.6506 313.78 39.9306C307.555 43.2716 302.69 48.7056 296.491 51.9466C292.614 53.9736 290.343 55.7646 287.841 59.4386C285.608 62.7146 283.553 66.1116 281.637 69.5826C277.663 76.7806 274.3 84.2756 271.214 91.8906C263.414 111.133 256.311 130.683 248.895 150.076L237.225 180.595C235.339 185.525 233.5 190.471 231.666 195.42L231.487 195.899C231.247 196.535 231 197.172 230.752 197.811C229.069 202.149 227.357 206.564 227.725 211.276C228.139 216.564 231.377 220.739 235.348 223.991C240.164 227.933 245.127 231.709 250.013 235.563C256.07 240.34 262.067 245.226 268.139 250.006C264.017 251.529 259.879 253.006 255.771 254.539L255.302 254.711C248.846 257.053 240.423 258.822 235.517 263.816C230.492 268.931 231.077 275.665 232.105 282.129L233.604 291.198C234.633 297.364 235.683 303.526 236.754 309.685C242.41 342.215 248.655 374.643 255.483 406.947C269.259 472.126 284.835 537.148 304.601 600.788C315.726 636.604 326.499 672.529 338.275 708.143C341.087 716.646 354.628 712.969 351.745 704.43C341.527 674.149 330.826 643.674 322.693 612.755C314.54 581.755 305.984 550.861 298.006 519.814C282.211 458.335 268.362 396.38 256.77 333.969C253.493 316.32 250.388 298.64 247.459 280.93C247.199 279.36 246.746 277.695 246.713 276.097C246.703 275.622 246.657 275.295 246.624 275.06C246.551 274.539 246.54 274.461 247.108 274.206L249.222 273.293C252.694 271.843 256.351 270.7 259.864 269.386C268.56 266.132 277.209 262.69 286.037 259.814C291.305 258.097 294.244 250.733 289.52 246.621C282 240.072 274.048 233.979 266.295 227.71L255.421 218.919C252.263 216.366 246.692 213.43 244.603 209.916L244.519 209.769C244.765 209.337 245.093 207.558 245.196 207.263C245.946 205.102 246.828 202.983 247.648 200.848C249.543 195.92 251.439 190.993 253.283 186.045C256.621 177.083 259.96 168.12 263.297 159.158L273.654 131.343L284.018 103.532C288.777 90.7766 293.982 78.0376 301.409 66.5686L301.632 66.2208C302.933 64.1707 303.571 62.7453 304.016 60.1846L304.102 59.7103C304.37 58.2929 304.735 56.9258 305.396 55.6316C307.122 52.2496 309.937 49.3986 312.733 46.8866C318.577 41.6366 325.74 37.9996 333.236 35.7456ZM520.165 48.5119C528.066 47.7617 534.176 50.1329 541.188 52.8547C541.747 53.0717 542.312 53.2909 542.883 53.5109C546.257 54.8079 549.452 56.3069 552.689 57.8589C556.742 59.8019 559.348 63.2374 561.843 66.8696L563.177 68.8269C573.568 84.0509 580.558 101.615 588.445 118.19C597.671 137.579 606.989 156.926 616.018 176.407L620.474 186.005C622.702 190.804 624.923 195.606 627.11 200.423L630.891 208.807C634.688 217.31 638.093 226.305 632.68 235.077C627.647 243.235 618.724 249.547 611.659 255.853C605.765 261.115 599.87 266.376 593.973 271.636C606.162 283.842 614.345 299.211 619.155 315.693C625.989 312.846 634.33 312.3 641.396 311.068C651.287 309.344 652.499 324.318 643.164 324.135C641.252 324.097 639.248 324.125 637.196 324.152C631.86 324.225 626.22 324.301 621.11 323.252C622.339 328.668 623.231 334.166 623.798 339.679C626.77 368.574 620.276 397.637 613.504 425.595L612.946 427.89C605.591 458.15 598.617 488.489 592.378 519C586.125 549.576 580.5 580.281 575.507 611.088C570.425 642.445 566.829 673.975 562.964 705.498C562.379 710.269 559.377 714.358 554.105 714.358C549.713 714.358 544.693 710.259 545.245 705.498C549.233 671.17 554.889 637.022 560.508 602.929C570.187 544.216 582.368 486.014 596.381 428.194L598.829 418.125C605.134 392.01 610.854 365.102 607.691 338.165C605.115 316.23 595.944 292.844 577.818 279.22L577.266 278.81C573.032 275.705 571.403 269.767 575.573 265.678C578.227 263.076 580.884 260.476 583.542 257.879L599.498 242.301L602.715 239.155C605.398 236.536 608.093 233.933 610.868 231.41C612.548 229.884 617.103 226.974 617.436 224.464C617.609 223.16 616.416 221.072 615.525 219.513C615.296 219.113 615.088 218.747 614.927 218.439L611.325 211.17C609.28 207.025 607.298 202.85 605.301 198.681C601.163 190.045 596.965 181.435 592.917 172.756L568.596 120.644C561.735 105.942 555.623 90.4209 546.653 76.8289L544.885 74.1799C543.409 71.9489 542.105 69.8014 541.171 67.0729C540.274 64.4479 539.148 61.5659 537.49 59.3259C533.605 54.0689 526.179 51.0869 519.966 49.9859C519.068 49.8259 519.394 48.5859 520.165 48.5119ZM282.839 60.1634C240.016 58.4194 197.26 74.6174 161.341 97.1274C124.384 120.289 92.7882 152.412 72.3222 191.075C48.3504 236.362 36.39 287.58 26.4742 337.587L25.5502 342.271C14.9432 396.321 8.35623 451.14 4.58423 506.074C0.389231 567.182 -2.12377 629.309 2.41223 690.46C3.08923 699.597 16.4092 699.779 16.7552 690.46C18.7572 636.674 17.6002 582.858 20.4072 529.08C23.1662 476.213 28.3512 423.437 37.2572 371.236C41.7662 344.809 47.1892 318.54 53.7692 292.551C59.9872 267.994 67.1082 243.446 77.2672 220.194C94.6112 180.501 120.951 145.288 154.839 118.216C173.206 103.543 193.828 91.3334 215.516 82.2654C237.141 73.2244 260.234 67.0124 283.076 61.9124C284.087 61.6874 283.813 60.2034 282.839 60.1634ZM577.297 85.9873C576.145 85.5903 575.57 87.2543 576.503 87.8723C591.337 97.6963 605.193 110.208 617.767 122.785C630.262 135.284 641.533 148.751 651.523 163.331C674.028 196.173 689.721 233.482 701.104 271.488C725.613 353.331 740.204 438.886 747.114 523.956C749.1 548.396 750.47 572.907 751.455 597.407C751.948 609.667 752.436 621.933 752.775 634.199C752.936 640.016 752.942 645.812 752.848 651.631C752.824 653.061 752.757 654.516 752.682 655.98C752.223 656.912 752.023 657.996 752.258 659.167C752.34 659.576 752.414 659.976 752.482 660.37C752.37 663.422 752.387 666.468 752.819 669.415C752.348 678.273 766.678 679.89 768.786 671.223C769.792 667.089 769.636 662.714 769.483 658.411C769.436 657.11 769.39 655.816 769.377 654.537L769.266 645.821C769.233 642.916 769.214 640.011 769.238 637.104C769.332 625.802 769.343 614.512 769.006 603.214C768.352 581.252 767.051 559.353 765.113 537.467C761.179 493.038 755.193 448.721 747.434 404.8C739.798 361.582 730.446 318.486 718.299 276.298C706.906 236.731 692.797 197.187 669.981 162.658C658.609 145.451 645.23 128.942 629.503 115.517C621.905 109.031 613.952 102.985 605.339 97.9103C597.324 93.1871 588.237 89.7851 579.41 86.7176L577.297 85.9873ZM351.902 151.645C353.271 162.944 354.619 174.245 355.964 185.548L356.373 189.046C369.698 186.456 383.741 185.697 397.178 185.126C413.113 184.448 429.02 184.099 444.969 184.148C460.902 184.196 476.811 184.573 492.731 185.231C500.686 185.559 508.64 185.939 516.59 186.371C517.995 186.447 519.554 186.448 521.189 186.449C522.1 186.45 523.034 186.45 523.977 186.464C524.034 184.688 524.083 182.912 524.144 181.137C524.386 173.943 524.623 166.749 524.87 159.556C519.493 162.318 512.502 163.432 507.098 164.609L506.481 164.745C497.558 166.749 488.447 168.048 479.339 168.842C461.453 170.402 443.381 169.819 425.512 168.308L422.382 168.04C406.691 166.68 390.423 164.955 375.211 161.072C367.965 159.223 360.474 156.635 353.981 152.884C353.306 152.494 352.609 152.081 351.902 151.645ZM360.786 227.14C359.517 215.978 358.227 204.818 356.912 193.662C367.864 195.21 379.131 195.731 390.211 196.143L397.178 196.397C413.11 196.987 429.042 197.664 444.969 198.357C460.892 199.05 476.819 199.829 492.731 200.742C500.356 201.179 507.978 201.665 515.597 202.197C518.076 202.37 520.755 202.774 523.457 203.059C523.246 210.027 523.041 216.994 522.847 223.961C521.566 222.409 519.615 221.369 516.987 221.39C489.012 221.611 461.015 221.607 433.046 222.201C419.379 222.491 405.723 222.88 392.075 223.652C385.061 224.048 378.054 224.802 371.09 225.749C367.849 226.19 364.26 226.52 360.786 227.14ZM361.389 232.471C362.621 243.362 363.839 254.256 365.041 265.151C368.825 264.719 372.654 264.48 376.267 264.155C383.552 263.502 390.871 262.93 398.178 262.594L412.782 261.916C422.517 261.466 432.251 261.03 441.993 260.675C468.655 259.702 495.316 258.587 521.962 257.226C522.15 249.837 522.344 242.448 522.542 235.059C521.263 236.429 519.415 237.33 516.987 237.324C509.269 237.303 501.549 237.301 493.829 237.298C473.567 237.291 453.3 237.284 433.046 236.951C419.045 236.72 405.06 236.381 391.075 235.663C384.232 235.312 377.351 234.596 370.56 233.655C367.664 233.254 364.495 232.968 361.389 232.471ZM441.993 273.621C468.542 273.265 495.075 272.455 521.604 271.387L520.959 297.296L520.653 297.415C520.147 297.628 519.67 297.908 519.226 298.245C519.053 298.264 518.864 298.286 518.65 298.313L518.186 298.375C517.098 298.319 515.981 298.399 514.875 298.478C514.325 298.518 513.777 298.557 513.236 298.579C509.936 298.716 506.636 298.849 503.335 298.988C501.025 299.086 498.715 299.186 496.406 299.289L482.545 299.909C468.686 300.525 454.822 301.09 440.965 301.757C427.433 302.408 413.87 303.174 400.374 304.363C393.443 304.973 386.481 305.526 379.584 306.475L378.954 306.559C376.178 306.914 372.868 307.185 369.7 307.774C368.39 295.672 367.07 283.572 365.739 271.474C368.959 271.784 372.193 271.972 375.271 272.231L377.696 272.426C384.17 272.922 390.703 273.232 397.182 273.368C412.124 273.68 427.049 273.821 441.993 273.621ZM520.589 312.452C518.541 312.701 516.388 312.693 514.337 312.685C513.273 312.681 512.236 312.677 511.255 312.709C503.996 312.946 496.736 313.166 489.476 313.38L445.915 314.666C431.084 315.103 416.201 315.431 401.364 315.221C394.838 315.129 388.282 315.118 381.758 314.764L379.584 314.632C376.899 314.453 373.604 314.428 370.386 314.101L374.185 349.288C382.914 348.027 391.909 347.555 400.563 346.816L402.412 346.653C415.176 345.49 428.001 344.721 440.788 343.855C453.905 342.967 467.003 341.889 480.102 340.786C486.649 340.236 493.195 339.687 499.737 339.085L500.546 339.006C501.376 338.919 502.199 338.819 503.016 338.72C508.28 338.082 513.272 337.477 518.009 340.631C518.81 341.163 519.437 341.875 519.866 342.672C520.105 332.599 520.339 322.525 520.589 312.452ZM660.13 336.125C660.318 335.589 661.026 335.596 661.214 336.125C665.31 347.587 665.457 360.52 666.545 372.603L666.63 373.531C667.674 384.551 668.46 395.585 669.191 406.628L669.463 410.77C672.396 455.82 676.062 500.82 681.586 545.633C687.091 590.277 694.534 634.61 702.583 678.855C703.48 683.781 701.299 688.799 696.133 690.218C691.578 691.469 685.732 688.664 684.77 683.767C679.773 658.371 675.732 632.941 672.127 607.325C665.781 562.218 661.044 516.903 658 471.453C656.471 448.626 655.531 425.808 655.156 402.932C654.984 392.318 655.259 381.679 655.825 371.076L655.961 368.63C656.584 357.793 656.521 346.46 660.13 336.125ZM519.043 348.655C519.32 348.383 519.548 348.091 519.743 347.789C519.463 359.705 519.183 371.621 518.913 383.538C517.759 381.808 515.481 380.712 513.467 380.753C501.245 381.003 488.908 382.693 476.725 383.718L470.597 384.247C460.387 385.151 450.187 386.156 439.983 387.145C428.052 388.302 416.141 389.584 404.233 390.955C398.274 391.641 392.343 392.578 386.418 393.51C384.067 393.88 381.585 394.236 379.119 394.701C377.754 382.236 376.399 369.77 375.052 357.303C383.823 358.141 392.829 358.11 401.428 358.286C414.856 358.56 428.357 358.145 441.772 357.542C454.88 356.953 467.995 356.292 481.084 355.347C487.632 354.875 494.176 354.352 500.717 353.802L501.127 353.769C507.8 353.247 514.007 353.631 519.043 348.655ZM518.738 391.439C517.505 393.005 515.663 393.826 513.467 394.11C502.028 395.594 490.295 395.832 478.759 396.532L476.725 396.66C464.814 397.445 452.896 398.061 440.976 398.694C428.731 399.344 416.488 399.874 404.233 400.301C399.031 400.482 393.802 400.503 388.591 400.437L386.359 400.403C384.219 400.367 381.978 400.372 379.732 400.299C380.975 411.619 382.23 422.938 383.503 434.254C385.793 434.005 388.082 433.815 390.303 433.58C396.849 432.888 403.387 432.204 409.948 431.687C422.38 430.707 434.821 430.118 447.276 429.502C460.019 428.871 472.769 428.451 485.514 427.856C491.693 427.567 497.87 427.208 504.031 426.64C505.457 426.509 506.971 426.261 508.521 426.007C511.668 425.492 514.966 424.951 517.983 425.313C518.229 414.021 518.485 402.73 518.738 391.439ZM150.208 392.06C149.534 391.469 148.518 392.206 148.956 393.026C157.975 409.9 158.452 427.543 157.851 446.231L157.645 452.437C157.012 471.049 156.224 489.62 155.197 508.239L154.449 522.069C152.251 563.561 150.425 605.062 148.379 646.562L145.482 705.275C145.405 706.823 145.267 708.426 145.126 710.054C144.679 715.216 144.21 720.637 145.636 725.381L145.83 725.231L145.896 725.459C148.022 732.384 158.14 733.667 161.546 725.381C163.197 721.365 163.248 716.392 163.296 711.738C163.312 710.197 163.327 708.69 163.401 707.266L166.166 653.528C167.395 629.639 168.829 605.763 170.16 581.879C171.471 558.338 172.436 534.777 173.51 511.225C173.762 505.686 174.122 500.095 174.484 494.479C175.502 478.657 176.533 462.638 175.219 447.027C173.538 427.079 165.521 405.498 150.208 392.06ZM506.61 441.218C510.033 441.002 514.095 441.046 517.659 440.166L517.094 466.521C515.663 466.215 514.234 466.338 512.947 466.874C509.694 467.588 506.057 467.658 502.55 467.725C500.933 467.756 499.344 467.786 497.832 467.879C495.026 468.051 492.222 468.239 489.417 468.434L481.003 469.027C469.123 469.86 457.235 470.588 445.357 471.449C433.787 472.287 422.211 473.28 410.695 474.66C405.378 475.297 400.109 476.009 394.83 476.901C392.769 477.249 390.607 477.509 388.455 477.851C387.075 465.747 385.692 453.644 384.323 441.538C386.335 441.639 388.341 441.704 390.303 441.803C396.853 442.131 403.393 442.452 409.948 442.604C420.168 442.842 430.378 442.817 440.594 442.757L448.257 442.709C461.001 442.631 473.749 442.474 486.489 442.16C492.989 442 499.491 441.754 505.976 441.262L506.61 441.218ZM516.766 481.795C514.337 482.602 511.47 482.654 508.325 482.798L500.21 483.202C496.449 483.386 492.687 483.56 488.923 483.697C476.382 484.156 463.841 484.585 451.298 484.984C438.445 485.392 425.53 485.629 412.675 485.224C406.378 485.025 400.134 484.695 393.856 484.17C392.304 484.04 390.722 483.955 389.137 483.843C390.598 496.63 392.065 509.415 393.537 522.2C412.066 519.926 430.738 518.51 449.244 516.158L465.978 514.021C482.703 511.887 499.415 509.793 516.201 508.027L516.766 481.795ZM453.046 525.535C474.065 525.328 494.916 524.633 515.879 522.969L515.227 553.247C509.912 553.233 504.572 553.458 499.241 553.683C495.391 553.846 491.546 554.008 487.718 554.08C476.458 554.292 465.198 554.482 453.936 554.506C448.543 554.517 443.149 554.499 437.756 554.482L437.728 554.482C432.202 554.464 426.678 554.445 421.154 554.458C415.85 554.47 410.567 554.518 405.266 554.709C402.66 554.803 399.981 554.804 397.315 554.928C396.196 545.279 395.086 535.628 393.973 525.977C406.424 526.306 418.923 526.073 431.393 525.84C437.57 525.724 443.74 525.609 449.892 525.562L453.046 525.535ZM398.237 562.923C399.327 572.34 400.35 581.773 401.393 591.203C402.086 591.096 402.788 591.004 403.503 590.929C409.127 590.341 414.739 589.837 420.383 589.487C431.634 588.79 442.884 588.422 454.153 588.12C465.741 587.809 477.331 587.571 488.923 587.407C494.555 587.328 500.182 587.336 505.814 587.375C506.54 587.38 507.268 587.377 508 587.374L508.036 587.374C509.947 587.367 511.863 587.36 513.762 587.487C514.076 587.508 514.377 587.541 514.675 587.575L514.873 573.417C514.907 571.058 514.943 568.699 514.981 566.34C508.174 566.76 501.279 566.726 494.437 566.693L494.425 566.693C492.521 566.683 490.622 566.674 488.73 566.674L486.725 566.679C475.796 566.729 464.863 566.579 453.936 566.352C442.663 566.117 431.413 565.749 420.16 565.027C415.601 564.736 411.075 564.347 406.541 563.847L404.273 563.588C402.3 563.355 400.268 563.167 398.237 562.923ZM512.769 601.232C513.358 601.207 513.912 601.153 514.456 601.089C514.31 608.921 514.124 616.749 513.836 624.567L513.817 625.062L503.986 624.981C492.019 624.883 480.054 624.844 468.088 624.83C464.858 624.826 461.628 624.812 458.397 624.798C449.993 624.761 441.588 624.724 433.188 624.868L432.082 624.883C429.749 624.905 427.352 624.877 424.922 624.848C418.476 624.772 411.798 624.693 405.467 625.548C404.419 617.595 403.47 609.623 402.562 601.645C408.176 601.802 413.774 601.951 419.39 601.941C430.981 601.918 442.563 601.717 454.153 601.577C465.411 601.441 476.67 601.373 487.93 601.374C493.561 601.375 499.19 601.337 504.82 601.288C505.727 601.281 506.636 601.285 507.546 601.289L507.56 601.289C509.298 601.297 511.038 601.305 512.769 601.232ZM602.345 617.406C601.826 616.417 603.012 615.615 603.818 616.27C609.428 620.832 614.456 626.274 619.873 631.088C625.238 635.857 630.803 640.305 636.52 644.643C642.261 648.999 648.127 653.181 654.151 657.138C659.148 660.42 664.298 663.049 669.531 665.774C671.954 666.086 674.198 667.275 675.994 669.53C678.834 673.096 679.136 679.82 675.197 682.916L674.49 683.471C669.893 687.084 664.436 687.524 659.911 683.471C654.858 678.947 650.082 673.968 645.23 669.186L643.772 667.758C638.558 662.69 633.471 657.458 628.675 651.991L624.333 647.052C616.279 637.867 607.895 627.968 602.345 617.406ZM272.774 623.837C273.078 623.341 272.484 622.807 272.004 623.067C262.047 628.46 253.111 635.726 244.433 643.057L239.805 646.98C229.221 655.948 218.352 664.664 207.953 673.836C200.557 680.361 211.83 691.832 218.838 684.721C228.537 674.877 237.809 664.533 247.316 654.492C256.41 644.886 265.819 635.14 272.774 623.837ZM406.915 636.272L408.614 648.557C409.462 654.7 410.303 660.846 411.101 666.995C416.522 666.253 422.068 665.942 427.292 665.479C436.437 664.669 445.645 664.277 454.817 663.898C460.176 663.677 465.541 663.41 470.911 663.143C484.549 662.465 498.21 661.786 511.832 661.854C512.027 661.855 512.211 661.868 512.395 661.883L513.337 637.644L499.997 637.623C488.695 637.605 477.395 637.509 466.093 637.412C455.914 637.325 445.732 637.311 435.555 637.099L431.193 636.995C428.746 636.929 426.218 636.927 423.651 636.925C418.12 636.921 412.405 636.917 406.915 636.272Z" transform="translate(36.99977 0.9990142)" fill="#000000" fill-rule="evenodd" stroke="none"></path></g><g transform="translate(225 0)"><g><g><path d="M88.4949 20.3272C151.509 16.8872 207.339 -0.818022 251.695 38.807C251.695 38.807 323.452 -14.7802 335.425 5.62925C343.447 19.305 332.322 37.6637 335.305 54.5392C354.757 87.6998 353.657 143.828 354.757 156.981C357.529 190.135 374.989 314.891 374.989 344.517C374.989 359.639 362.522 399.243 354.757 421.284C337.475 470.34 304.485 495.341 250.384 495.341C196.283 495.341 107.98 450.123 79.6594 409.977C77.1774 406.458 61.1273 416.723 44.3396 398.917C26.1527 379.627 16.0636 342.835 16.0636 320.904C16.0636 293.073 -1.92279 273.773 0.169318 238.149C4.84158 158.59 21.0666 24.0081 88.4949 20.3272Z" transform="translate(31.93695 6.192752)" fill="#FFFFFF" stroke="none"></path><path d="M145.872 0.0930247C145.042 0.0120247 144.212 -0.0279753 143.392 0.0220247C141.512 0.142025 139.662 0.512025 137.902 1.11302C136.172 1.50302 134.502 2.13302 132.952 3.04202C131.572 3.85202 130.312 4.76202 129.122 5.81203C128.862 6.04202 128.612 6.27202 128.372 6.51202C128.062 6.76202 127.732 7.00303 127.422 7.27203C126.332 8.23203 125.442 9.25303 124.662 10.332C121.332 7.43202 117.752 4.90303 113.522 3.23202C109.442 1.63302 105.172 0.573025 100.842 0.292025C100.652 0.282025 100.452 0.272025 100.252 0.253025L99.3489 0.214869C94.9863 0.0656758 90.6253 0.774752 86.4922 2.30202C82.9122 3.34302 79.5022 4.95202 76.3922 7.11302C74.9522 8.11302 73.5621 9.21303 72.2522 10.403C71.9122 10.682 71.5622 10.942 71.2422 11.232C68.5422 13.682 66.2122 16.372 64.2822 19.463C63.7322 20.332 63.2522 21.202 62.8222 22.062C62.2522 21.662 61.6522 21.292 61.0922 20.992C58.4022 19.573 55.2522 18.992 52.1622 19.153C49.5122 19.142 46.9322 19.602 44.5422 20.762L44.3622 20.812L43.8877 20.9757C41.2302 21.9332 39.1005 23.3981 37.3722 25.202C34.3922 27.613 32.4122 30.963 31.0922 34.732C28.8222 39.932 28.0822 46.182 27.8722 51.923C27.762 51.923 27.6554 51.9175 27.5485 51.9119C27.4033 51.9043 27.2577 51.8967 27.1022 51.903C24.8522 51.982 22.0822 53.022 19.9222 54.162C18.7122 54.622 17.5622 55.182 16.5522 55.812C14.8422 56.872 13.2722 58.122 11.8722 59.532C9.28215 61.722 7.18215 64.392 5.70215 67.542C5.32215 68.363 5.01215 69.202 4.73215 70.042C4.60215 70.332 4.46215 70.613 4.35215 70.892C2.87215 74.593 2.41215 78.702 2.66215 82.662C2.70215 83.182 2.74215 83.702 2.80215 84.213C2.82215 85.322 2.87215 86.432 3.00215 87.552C3.32215 90.383 3.90215 93.062 5.03215 95.702C6.07215 98.133 7.29215 100.412 8.64215 102.633C8.26215 102.903 7.90215 103.192 7.56215 103.503C7.33215 103.702 7.13215 103.923 6.92215 104.142C6.88215 104.173 6.84215 104.192 6.79215 104.222C4.80215 105.673 3.17215 107.812 2.18215 110.042C1.84215 110.792 1.57215 111.552 1.36215 112.322C0.142151 115.133 -0.287849 118.182 0.192151 121.093C0.152151 121.682 0.142151 122.272 0.192151 122.872C0.632151 128.822 5.06215 133.383 10.2522 135.802C14.1322 138.582 18.4022 140.472 23.0922 141.162C24.9722 141.673 26.9122 141.992 28.9122 142.093C30.0602 142.15 31.2112 142.119 32.3602 142.035C38.8672 134.556 46.0742 127.587 52.7922 120.311C56.2942 116.518 61.9371 122.19 58.4482 125.968C48.3372 136.919 36.3992 147.288 28.4492 160.108L27.6697 161.952C26.9347 163.718 26.2222 165.498 25.5322 167.282C17.6122 187.122 12.8222 208.202 14.5122 229.622C14.5222 229.795 14.5344 229.969 14.5477 230.142L14.6322 231.192L14.6622 231.613L14.6822 231.742C14.8722 234.082 15.1222 236.423 15.4822 238.762C16.2472 243.674 17.3642 248.474 18.7372 253.191C18.1052 260.812 18.4532 268.548 19.8212 276.207C19.8521 276.551 19.8762 276.894 19.9162 277.24C20.4792 282.084 21.8062 286.754 23.8092 291.124C26.6062 298.65 30.6912 305.775 36.5832 310.807C36.8552 311.039 37.1382 311.272 37.4302 311.503C40.7252 316.317 45.1112 320.201 50.6402 321.051L50.4872 321.385C49.2271 324.345 48.5672 327.515 48.4452 330.731C48.0562 340.937 52.8232 349.388 59.4472 356.4C59.3792 356.817 59.3102 357.235 59.2522 357.642C59.0222 357.753 58.8521 357.963 58.8022 358.302C58.0122 363.442 57.4221 368.432 58.0622 373.642C58.1422 374.302 58.2421 374.952 58.3422 375.593C58.6522 379.442 59.4422 383.423 60.6322 386.923C62.2822 391.822 64.5022 396.472 67.4822 400.702C69.3536 403.352 70.4444 404.558 72.0702 406.197L74.3622 408.492C74.4622 408.593 74.6222 408.392 74.7822 408.113C75.0722 408.403 75.3622 408.682 75.6522 408.963C75.1621 411.512 74.8822 414.072 74.8322 416.602C74.7622 420.102 75.0822 423.613 75.7022 427.082C76.9722 436.492 80.2421 445.702 85.3521 453.702C87.1922 456.253 89.0322 458.802 90.8521 461.352C92.6422 463.932 94.5522 466.423 96.5722 468.822C99.3622 471.912 102.432 474.872 105.652 477.532C107.302 478.903 109.042 480.102 110.872 481.133C111.132 481.312 111.382 481.512 111.662 481.692C116.102 484.602 121.242 487.032 126.572 487.772C128.242 488.222 129.922 488.522 131.622 488.633C134.792 488.843 138.232 488.593 141.312 487.732C141.632 488.442 141.952 489.133 142.282 489.812C142.162 490.062 142.092 490.292 142.142 490.383C145.142 495.883 148.252 501.272 152.432 505.982C154.512 508.332 156.702 510.532 159.052 512.613C162.982 516.093 167.152 518.792 171.662 521.503L171.682 521.503L172.986 522.307C173.858 522.84 174.735 523.369 175.622 523.903L176.143 524.221C176.794 524.597 177.737 525.025 178.112 524.372C178.125 524.352 178.134 524.332 178.141 524.312L178.172 524.192C178.209 524.212 178.244 524.234 178.28 524.255L179.09 524.757C179.843 525.204 181.01 525.771 181.402 525.082C181.795 524.386 180.711 523.689 179.944 523.265L179.332 522.932C178.882 522.673 178.472 522.383 178.032 522.113C178.162 522.102 178.282 522.082 178.392 522.032L179.852 522.903C179.9 522.932 179.96 522.971 180.032 523.016C180.699 523.44 182.309 524.462 182.932 523.903C183.545 523.342 182.702 522.691 182.174 522.349L181.972 522.222C180.722 521.562 179.512 520.863 178.332 520.113C178.502 520.133 178.672 520.142 178.842 520.133C179.342 519.932 179.342 519.622 179.142 519.312C179.712 519.633 180.292 519.942 180.882 520.232C181.382 520.572 181.922 520.722 182.512 520.673C183.712 520.192 181.992 519.052 181.642 518.843L181.188 518.595C180.888 518.425 180.592 518.252 180.292 518.093C180.492 518.153 180.692 518.202 180.862 518.202L180.933 518.249C181.859 518.867 183.691 520.09 184.392 519.622C185.239 519.061 184.434 518.374 183.841 517.995L183.692 517.903C182.122 517.062 180.602 516.153 179.132 515.192C179.202 515.133 179.262 515.052 179.312 514.952C179.69 514.26 179.009 513.867 178.482 513.563C178.423 513.529 178.366 513.495 178.312 513.463L177.305 512.856C174.969 511.43 172.726 509.947 170.582 508.363C170.342 508.133 170.092 507.903 169.852 507.662C166.942 504.923 164.452 501.852 162.382 498.432C159.902 495.282 157.822 491.883 156.142 488.242C154.462 486.122 152.772 484.003 151.072 481.903C151.272 481.633 151.442 481.332 151.602 481.022C151.952 480.602 151.252 480.003 150.422 479.482L151.012 479.072L151.277 478.874C152.054 478.262 152.686 477.491 153.172 476.572L153.202 476.522C153.454 475.891 150.352 473.795 148.252 473.213C147.852 472.942 147.402 472.682 146.952 472.452C147.072 472.282 147.212 472.122 147.322 471.942C147.992 471.173 145.422 469.713 144.472 469.822C144.192 469.633 143.832 469.642 143.602 469.892C143.272 470.302 142.922 470.682 142.572 471.042C141.932 470.872 141.372 470.872 141.072 471.182C139.732 472.602 138.322 473.812 136.802 474.782L136.392 474.932L135.836 475.116C133.048 476.001 130.164 476.35 127.192 476.153C124.942 476.093 122.802 475.572 120.762 474.593C120.342 474.482 119.922 474.352 119.512 474.213C118.452 473.713 117.412 473.122 116.392 472.452C116.072 472.162 115.752 471.863 115.452 471.562C113.522 469.562 111.542 467.613 109.522 465.713L106.102 461.242C102.582 456.272 99.2122 451.202 95.9822 446.032C90.0621 434.482 87.1722 420.503 90.4122 407.772L90.4322 407.732L90.7288 406.985C90.931 406.49 91.1422 405.999 91.3622 405.512C93.8422 400.052 97.4622 395.042 102.152 391.272L102.262 391.192L102.863 390.791C104.679 389.609 106.606 388.616 108.622 387.843L113.482 388.532C116.682 388.802 119.862 388.633 123.012 388.012C123.742 387.923 123.922 387.423 123.562 386.912C123.882 386.863 124.202 386.822 124.512 386.762C126.582 387.442 128.562 388.312 130.562 389.192L130.652 389.253C134.112 393.093 135.652 396.352 136.992 401.512C137.182 402.262 146.952 408.113 148.162 399.572C148.172 398.442 148.032 397.332 147.732 396.262C147.052 394.232 146.172 392.292 145.092 390.432C143.922 388.463 142.542 386.642 140.962 384.982C139.682 383.903 138.322 382.963 136.882 382.102C135.512 380.482 134.032 379.093 132.022 377.892C130.992 377.282 129.912 376.722 128.802 376.213C128.872 376.162 128.942 376.093 128.982 376.003C130.282 373.532 131.582 371.062 132.872 368.593C133.002 368.352 132.912 368.133 132.712 367.923L134.642 364.242C135.021 363.514 133.433 362.924 132.512 362.638L131.922 362.463L131.192 362.202C131.012 362.032 130.772 361.863 130.482 361.692C130.532 360.512 130.622 359.332 130.742 358.153L130.84 357.152C131.159 354.155 131.695 351.198 132.442 348.282C133.372 344.253 134.562 340.352 135.972 336.522C136.382 335.542 136.802 334.562 137.242 333.593C138.612 330.383 140.132 327.253 141.782 324.182C143.792 319.863 146.342 315.883 149.412 312.242L153.752 306.532L155.038 304.918C158.054 301.165 161.185 297.501 164.422 293.923C166.912 290.003 169.322 286.032 171.672 282.022C173.992 277.963 176.502 274.022 179.202 270.213L180.328 268.611C185.237 261.689 190.539 255.041 195.952 248.522C197.432 246.863 198.892 245.192 200.322 243.503C200.022 245.102 200.012 246.602 200.282 248.133C199.842 252.952 202.362 257.253 206.752 259.272L206.792 259.292L206.868 259.358L206.952 259.423C207.342 259.713 207.782 259.982 208.252 260.222C208.352 260.302 208.452 260.372 208.552 260.442C211.522 262.452 214.812 263.633 218.322 264.062C226.377 266.184 235.159 263.818 243.174 260.785L244.172 260.403L246.125 260.766L248.546 261.191L249.212 261.302C249.252 261.312 249.302 261.322 249.342 261.322C254.182 262.153 259.032 262.812 263.972 263.133C267.892 263.384 271.725 261.702 275.189 259.976L275.952 259.593C279.342 257.892 282.662 255.923 286.172 254.442C287.012 254.952 287.882 255.412 288.752 255.802C290.602 256.633 292.532 257.162 294.502 257.463C299.472 258.963 304.802 258.653 309.782 257.113C311.102 257.532 312.462 257.822 313.832 257.782C316.242 257.722 318.262 256.802 319.962 255.232C321.372 254.352 322.532 253.142 323.622 251.792L324.215 251.062C324.613 250.577 325.016 250.092 325.422 249.613L326.432 248.863L326.689 248.748C327.718 248.319 328.771 248.254 329.832 248.512C332.872 249.593 335.712 251.613 338.902 252.072C338.999 252.086 339.093 252.096 339.186 252.104L339.732 252.142C340.322 252.383 340.912 252.613 341.522 252.762C343.846 253.339 345.829 252.757 347.927 252.142C348.593 251.947 349.269 251.748 349.972 251.582C352.732 250.923 355.372 251.102 357.972 251.653C360.522 252.432 363.042 253.412 365.582 254.142C366.572 254.423 367.542 254.642 368.492 254.802C370.032 255.242 371.582 255.613 373.172 255.822C374.94 256.062 376.727 256.027 378.508 255.952L379.842 255.892C380.162 255.802 380.312 255.593 380.302 255.262L380.132 254.613C380.592 254.602 381.042 254.602 381.522 254.582C381.792 254.532 381.952 254.363 381.972 254.122C386.642 254.903 391.342 255.423 396.072 255.642L396.947 255.687C397.634 255.723 398.293 255.76 398.932 255.796C403.094 256.027 406.411 256.212 411.042 255.892C411.034 255.911 411.03 256.179 411.029 256.565L411.048 261.189C411.055 262.044 411.065 262.006 411.078 261.957C411.091 261.909 411.106 261.851 411.124 262.575L411.152 264.242C410.842 264.423 410.582 264.742 410.592 265.133C410.702 273.802 411.122 282.463 411.852 291.102C412.392 299.872 413.222 308.613 414.372 317.322C414.422 317.772 414.482 318.232 414.542 318.682C415.672 328.072 416.972 337.423 418.492 346.762C419.332 352.622 420.392 358.432 421.662 364.202L423.622 372.812L425.362 381.562L425.662 382.689C426.345 385.32 426.908 387.976 427.372 390.653L427.622 392.192C427.752 393.072 427.892 393.952 428.002 394.832C428.222 396.312 428.412 397.792 428.592 399.262C428.602 399.292 428.602 399.322 428.602 399.343C429.082 403.282 429.452 407.232 429.932 411.173L430.152 413.082C430.172 413.363 430.202 413.642 430.232 413.912L430.342 422.562C430.332 423.972 430.282 425.383 430.202 426.792C430.072 428.192 429.902 429.593 429.702 430.992C429.699 431.222 429.691 431.453 429.681 431.685L429.612 433.072C429.492 433.952 429.372 434.832 429.222 435.713C428.772 440.213 427.802 444.622 426.322 448.923C425.522 452.503 424.562 456.042 423.462 459.532C420.042 469.322 415.742 478.782 410.522 487.772C405.262 496.843 399.412 505.653 392.832 513.843L391.202 515.682C389.492 517.843 387.702 519.932 385.852 521.952C385.582 522.253 385.312 522.542 385.032 522.843C383.102 524.903 381.102 526.892 379.022 528.802C374.592 532.872 369.992 536.722 365.182 540.332C364.452 540.872 363.722 541.403 362.992 541.923C360.732 543.392 358.432 544.782 356.092 546.093C349.582 549.713 342.912 553.072 335.912 555.622C329.832 557.843 323.582 559.432 317.212 560.512C313.462 561.292 309.652 561.673 305.812 561.622C300.692 562.213 295.562 562.242 290.442 561.702L282.652 560.742L281.592 560.423C273.572 557.713 265.542 554.992 257.512 552.272C255.322 550.982 253.122 549.702 250.922 548.412C250.725 548.285 250.53 548.155 250.335 548.023L249.172 547.222C247.642 545.963 246.142 544.662 244.702 543.282C244.142 542.802 243.412 542.482 242.642 542.242C241.372 541.162 240.122 540.052 238.912 538.892C238.472 538.512 237.272 538.113 236.362 538.012C235.992 537.742 235.192 537.423 234.782 537.653C234.482 537.822 234.132 538.653 234.462 538.942C234.792 539.253 235.132 539.552 235.472 539.863C235.272 539.802 235.082 539.742 234.882 539.692L234.479 539.583C233.94 539.451 233.394 539.375 232.842 539.343C232.102 539.522 231.912 540.102 232.512 540.622L232.852 540.942L232.662 540.898C232.158 540.789 231.676 540.743 231.382 540.832C230.782 541.003 230.522 541.662 231.032 542.113L231.182 542.232C231.172 542.312 231.182 542.392 231.222 542.423C231.262 542.452 231.292 542.482 231.332 542.522C231.142 542.503 230.972 542.512 230.842 542.582C230.502 542.762 230.112 543.522 230.502 543.863C230.602 543.963 230.722 544.062 230.832 544.162C230.872 544.213 230.912 544.262 230.962 544.302C231.192 544.522 231.432 544.732 231.662 544.942L231.482 544.963C230.892 545.122 230.612 545.792 231.122 546.242C232.182 547.262 233.262 548.232 234.372 549.182C237.772 552.343 241.422 555.202 245.322 557.732C247.642 559.302 250.062 560.702 252.572 561.912C257.452 564.292 262.332 566.403 267.452 568.242C273.682 570.472 280.272 572.032 286.972 572.932C297.362 574.722 308.062 574.952 318.392 573.423C323.652 572.642 328.852 571.622 333.962 570.142C342.152 567.772 349.832 564.262 357.392 560.363C363.572 557.182 369.482 553.463 375.082 549.322C384.902 542.322 393.862 534.022 401.722 524.963C407.802 517.952 413.122 510.412 418.082 502.582C423.372 494.232 428.022 485.762 431.872 476.642C434.352 470.753 436.532 464.732 438.312 458.593C440.532 453.093 442.082 447.423 442.932 441.552C443.882 437.272 444.482 432.952 444.732 428.593C445.182 424.403 445.322 420.192 445.172 415.972C445.202 412.832 444.642 409.753 443.492 406.722C443.162 401.982 442.592 397.282 441.762 392.622C441.192 388.042 440.162 383.552 438.692 379.162C437.652 373.392 436.422 367.662 434.992 361.972C432.16 348.953 430.311 335.622 428.666 322.388L428.152 318.213C426.662 306.722 425.582 295.182 424.902 283.613C423.876 272.313 422.702 270.232 421.39 259.712L421.222 258.322C422.022 258.463 422.802 258.302 423.762 257.792C424.202 257.552 424.182 257.262 423.972 256.992C424.462 256.932 424.982 256.772 425.562 256.492C426.162 256.213 425.962 255.822 425.562 255.492C425.832 255.552 426.112 255.622 426.422 255.702L426.732 255.782C429.194 256.395 431.266 256.277 433.522 254.952C434.462 254.403 435.342 253.713 436.162 252.942C439.992 250.222 442.512 245.963 443.532 241.372C443.552 241.343 443.572 241.312 443.582 241.272C445.822 236.522 445.882 230.952 445.442 225.843C445.142 222.332 444.502 219.003 443.312 215.692C442.595 213.707 442.206 212.799 441.397 211.157L440.648 209.653L440.282 208.903C438.582 205.372 437.052 201.812 434.972 198.482C432.964 195.275 430.206 192.441 427.502 189.745L425.892 188.142L424.95 187.224C425.319 186.348 425.439 185.32 425.185 184.168C423.574 176.848 421.866 169.428 419.706 162.175C419.408 159.628 418.946 157.108 418.302 154.622C417.582 151.463 416.712 148.343 415.582 145.302C415.439 144.952 415.293 144.602 415.147 144.253L414.262 142.162C412.842 138.153 410.552 134.642 407.402 131.633C407.102 131.222 406.752 130.972 406.272 131.182C406.132 131.253 406.002 131.383 405.912 131.522C405.594 131.162 405.254 130.817 404.916 130.47C403.503 128.541 401.984 126.673 400.355 124.871C402.588 119.894 404.463 114.758 406.062 109.482C406.332 108.692 406.612 107.903 406.862 107.102C407.492 105.003 408.122 102.903 408.762 100.802C409.162 97.812 409.562 94.812 409.952 91.812C410.472 88.722 410.642 85.602 410.472 82.452C410.032 78.292 409.552 74.133 409.042 69.982C408.965 69.2666 408.492 68.6104 408.018 68.0407L407.602 67.552C407.516 67.4533 407.415 67.3247 407.303 67.1814C406.811 66.5549 406.097 65.6459 405.462 65.702C405.202 65.713 404.942 65.732 404.682 65.753C404.472 65.503 404.172 65.093 403.842 64.722L403.792 64.352C403.752 63.992 403.112 62.963 402.672 63.003L401.212 63.122C400.612 63.162 400.002 63.213 399.402 63.262C398.482 62.8423 397.122 62.9723 395.322 63.6423C393.332 63.872 391.352 64.142 389.382 64.482C385.052 65.093 380.782 65.923 376.462 67.133C371.652 68.482 365.822 70.532 361.232 72.522C356.781 74.453 352.468 76.625 348.303 79.021C343.051 73.797 337.42 69.417 331.081 65.996C330.37 65.218 329.649 64.445 328.902 63.682C326.152 60.863 323.262 58.173 320.202 55.702C317.302 53.202 314.242 50.883 311.012 48.812C309.656 47.948 308.257 47.1056 306.858 46.274L304.072 44.622C300.802 42.372 297.332 40.512 293.662 39.052C291.322 37.892 288.892 36.952 286.392 36.213C273.922 31.963 261.042 29.642 247.872 29.213C243.092 29.052 238.322 29.153 233.552 29.442C229.302 29.613 225.052 29.963 220.822 30.452C220.632 29.762 220.422 29.073 220.182 28.403C218.452 23.622 215.712 19.282 212.242 15.573C210.562 13.782 208.972 12.153 207.152 10.673C204.382 7.69203 201.082 5.21303 197.292 3.64202C194.092 2.32302 190.662 1.76202 187.242 1.87202C184.382 1.86302 181.542 2.32302 178.842 3.22202C178.742 3.24202 178.642 3.26202 178.542 3.29202L178.022 3.43271C174.22 4.50131 170.685 6.37946 167.672 8.96303C166.952 9.48203 166.262 10.032 165.602 10.613C165.372 10.823 165.162 11.032 164.942 11.242C163.692 9.88303 162.302 8.60203 160.802 7.47202C160.722 7.38302 160.652 7.28202 160.562 7.19203C157.362 3.74202 153.232 1.29202 148.602 0.403025C147.692 0.222025 146.782 0.133025 145.872 0.0930247ZM395.322 63.642L395.242 63.673C396.642 63.522 398.032 63.392 399.442 63.272L399.402 63.262C398.042 63.3623 396.682 63.4923 395.322 63.6423L395.322 63.642ZM390.502 79.302C392.562 78.692 394.632 78.202 396.722 77.822C396.932 79.702 397.122 81.593 397.222 83.482L397.234 83.665L397.242 84.042C397.172 84.923 397.092 85.802 396.972 86.682C396.612 92.072 396.122 97.142 394.702 102.352C393.152 108.052 391.102 113.572 388.622 118.883C385.822 124.542 382.492 129.942 378.662 134.972C374.522 140.403 369.852 145.432 364.692 149.912C363.832 150.622 362.962 151.322 362.082 152.003C359.192 154.222 356.172 156.272 353.032 158.142C345.262 157.222 337.422 156.972 329.672 157.383C328.552 157.442 327.442 157.522 326.322 157.613C326.292 157.343 326.252 157.062 326.202 156.792C325.762 153.802 324.972 150.713 323.902 147.863L324.042 147.832C324.185 147.795 324.328 147.755 324.47 147.714L325.322 147.463C325.742 148.173 326.762 148.883 327.232 148.732C332.942 147.343 338.362 145.222 343.492 142.383C350.342 139.133 357.352 136.272 364.532 133.832C365.072 133.633 365.112 133.292 364.952 132.932L366.182 132.492L366.301 132.443C367.204 132.014 366.272 131.069 365.79 130.581C365.766 130.557 365.743 130.534 365.722 130.512L365.339 130.143C365.081 129.898 364.819 129.656 364.552 129.423C364.992 129.262 365.432 129.102 365.882 128.952C366.282 128.802 366.392 128.582 366.352 128.322L367.642 127.883C368.672 127.512 367.832 126.562 367.402 126.102L366.838 125.504C366.072 124.715 364.867 123.602 364.152 123.822L363.912 123.892L363.699 123.677C363.404 123.384 363.066 123.072 362.722 122.792C363.292 122.102 361.862 120.622 361.022 120.892L360.552 121.032C360.592 120.852 360.542 120.742 360.282 120.832C359.382 121.113 358.482 121.423 357.582 121.713C351.562 123.593 345.702 125.622 339.952 128.292C337.542 129.282 335.242 130.482 333.052 131.903C329.672 133.682 326.542 135.863 323.672 138.432L323.62 138.478C323.406 138.688 322.946 139.319 322.798 139.508L322.752 139.562L324.842 138.872L324.553 139.117L324.272 139.363C323.342 140.082 322.412 140.822 321.512 141.582C321.372 141.692 321.262 141.782 321.172 141.883C319.242 138.332 316.832 135.032 314.072 132.052L313.931 131.9C313.837 131.797 313.739 131.692 313.632 131.593L314.022 131.713C314.232 131.772 314.492 131.582 314.672 131.343C315.352 131.883 316.172 132.312 317.192 132.593C317.742 132.742 318.142 132.093 318.102 131.633C318.082 131.383 317.862 131.093 317.582 130.822C318.002 131.022 318.432 131.202 318.872 131.322C319.462 131.482 319.922 130.903 319.782 130.363C319.602 129.662 318.362 128.633 317.702 128.403C317.642 128.392 317.592 128.372 317.542 128.352C317.542 128.052 317.602 127.742 317.682 127.432C317.952 127.542 318.222 127.642 318.492 127.713C319.082 127.883 319.452 127.222 319.392 126.742C319.372 126.593 319.282 126.423 319.152 126.253C319.452 126.372 319.752 126.482 320.072 126.572C321.012 126.832 321.172 125.052 320.222 124.732L319.092 124.343C319.402 123.802 319.742 123.262 320.132 122.772C322.052 120.372 324.492 118.363 326.612 116.142C328.342 114.253 330.082 112.372 331.812 110.492C333.462 108.782 335.202 107.162 336.992 105.613C337.482 105.213 337.972 104.812 338.482 104.423C346.472 97.963 355.252 92.602 364.612 88.363C369.432 86.182 374.272 84.122 379.262 82.352C382.882 80.903 386.632 79.883 390.502 79.302ZM138.102 118.602C147.542 117.832 156.982 117.742 166.422 118.633C172.622 119.113 178.732 120.162 184.742 121.782C185.912 121.982 187.062 122.222 188.212 122.463C190.512 123.093 192.802 123.753 195.072 124.482C199.622 125.843 204.062 127.472 208.402 129.392C216.152 132.512 223.502 136.423 230.452 141.113C230.732 141.282 231.162 140.972 231.372 140.572L232.342 141.153C232.212 141.463 232.092 141.772 231.982 142.093C231.272 143.742 230.672 145.423 230.192 147.133C229.242 146.722 228.282 146.343 227.312 145.982L226.423 145.646C222.563 144.218 218.6 143.159 214.542 142.463C212.922 142.153 211.292 141.923 209.662 141.742C208.812 141.633 207.962 141.542 207.112 141.463C202.672 141.162 198.252 141.292 193.842 141.852C193.702 141.863 193.582 141.992 193.462 142.173C191.682 142.452 189.902 142.782 188.142 143.202C187.962 143.242 187.802 143.372 187.662 143.542C184.842 144.173 182.142 144.992 179.242 145.903C179.022 145.972 178.382 146.722 178.262 147.062L177.472 147.302L177.412 147.331C177.069 147.539 176.352 148.592 176.502 148.572L178.152 148.363C178.112 148.472 178.112 148.593 178.142 148.722C177.742 148.872 177.352 149.003 176.952 149.162L176.838 149.206C175.983 149.592 176.591 150.771 177.282 151.202L176.889 151.347C176.071 151.709 175.805 153.248 176.972 153.102C177.892 152.992 178.822 152.872 179.752 152.753C179.922 152.812 180.072 152.843 180.192 152.832L180.552 152.792L179.922 153.016C179.502 153.168 179.082 153.325 178.662 153.492C177.502 153.852 178.422 155.613 179.302 155.503L180.992 155.272C181.392 155.852 182.052 156.352 182.422 156.312C186.372 155.772 190.332 155.322 194.302 154.972C197.802 154.582 201.312 154.332 204.822 154.202C210.672 154.912 216.512 155.633 222.362 156.352C224.422 156.963 226.442 157.682 228.432 158.503C228.402 159.222 228.392 159.942 228.392 160.662C228.392 161.423 228.442 162.292 228.512 163.222C228.542 165.253 228.702 167.312 228.982 169.242L230.002 174.423C230.802 177.512 231.922 180.482 233.372 183.322L233.132 183.343C232.722 182.963 232.172 182.472 231.602 182.133C232.312 181.562 231.212 179.992 230.272 180.093L229.622 180.153C229.622 180.012 229.542 179.923 229.342 179.942C218.788 181.037 208.228 182.208 197.666 183.27C190.202 184.611 182.62 185.564 175.144 184.843L174.082 184.843C174.06 184.824 174.038 184.807 174.016 184.792L173.886 184.705C172.915 184.586 171.945 184.447 170.977 184.266C168.838 183.864 166.844 183.254 164.965 182.491L163.872 183.082C163.922 182.982 163.952 182.883 163.932 182.812C163.882 182.633 163.712 182.383 163.472 182.512C163.326 182.585 163.181 182.661 163.038 182.738L162.182 183.202L161.042 182.963L160.433 182.806C160.027 182.699 159.622 182.585 159.222 182.472L151.722 179.593L150.916 179.189C148.778 178.093 146.727 176.843 144.762 175.412C142.312 174.122 140.072 172.562 137.992 170.782C137.342 170.113 136.702 169.423 136.102 168.692C133.822 166.613 131.742 164.352 129.852 161.912C127.052 158.503 124.482 154.952 122.112 151.222C117.52 143.98 113.623 136.364 109.819 128.697L107.542 124.093C111.522 122.852 115.572 121.852 119.702 121.142C125.802 120.062 131.932 119.213 138.102 118.602ZM288.322 127.522C283.782 126.613 279.222 126.482 274.642 127.162C272.723 127.443 270.813 127.781 268.919 128.19C273.22 131.94 276.679 136.739 278.924 142.262C281.35 148.232 271.673 150.805 269.281 144.921C266.974 139.245 262.607 134.891 257.332 132.281C256.192 132.918 255.087 133.608 254.032 134.372C252.652 135.492 251.352 136.702 250.132 138.032C247.472 140.923 245.032 144.782 243.432 148.602C242.812 150.682 242.352 152.822 242.062 155.022C242.002 155.522 241.942 156.032 241.892 156.542C240.906 166.891 243.865 176.96 248.956 185.87L249.156 185.873C253.7 183.409 258.457 181.333 263.352 179.642C267.272 177.003 271.342 174.562 275.532 172.352C284.44 167.653 293.848 164.03 303.542 161.553L304.662 161.272C306.945 160.689 309.25 160.175 311.563 159.725L312.952 159.463L312.972 159.463L312.822 157.972C312.042 152.122 309.752 146.692 306.792 141.673C304.572 137.883 301.222 134.003 297.502 130.903L297.482 130.892C295.793 129.932 294.017 129.138 292.19 128.482L291.502 128.242L288.322 127.522ZM395.435 134.506C394.591 135.964 393.713 137.408 392.782 138.832C388.261 145.751 382.841 152.244 376.695 157.905C378.298 157.901 379.897 157.962 381.476 158.11C384.199 158.367 386.866 158.819 389.466 159.452C389.677 159.283 389.913 159.198 390.102 159.332L390.78 159.801C396.357 161.306 401.593 163.672 406.336 166.842L406.251 166.216C406.237 166.112 406.221 166.007 406.202 165.903C406.282 164.673 406.302 163.442 406.262 162.222C405.282 155.012 402.832 148.372 400.032 141.653C399.979 141.523 400.017 141.354 400.098 141.182C398.685 138.874 397.138 136.642 395.435 134.506ZM323.452 144.792C323.222 144.872 322.982 144.952 322.742 145.022C322.882 145.332 323.012 145.633 323.142 145.942L323.157 145.936L324.102 145.192C323.902 145.102 323.672 144.963 323.452 144.792ZM199.792 196.082C205.803 195.463 211.814 194.83 217.825 194.187C223.43 194.731 229.043 195.151 234.664 195.434C234.282 195.736 233.891 196.026 233.512 196.332C232.992 196.593 232.472 196.852 231.952 197.122C231.842 196.952 231.632 196.753 231.442 196.872C231.235 196.992 231.03 197.115 230.825 197.24L229.602 197.992C229.172 197.633 228.652 197.423 228.362 197.613C220.782 202.452 213.502 207.383 206.802 213.383C205.632 214.392 204.482 215.412 203.342 216.463C196.272 223.042 189.722 230.153 183.522 237.542C177.312 244.942 171.492 252.732 165.952 260.642C159.442 269.932 153.492 279.593 147.202 289.042C138.582 301.982 130.012 314.992 124.032 329.423C121.932 334.482 120.202 339.653 118.902 344.952C118.412 346.843 117.962 348.732 117.572 350.653C117.192 352.992 116.842 355.332 116.542 357.682C116.092 362.182 116.102 366.682 116.572 371.182C116.582 371.423 116.732 371.602 116.932 371.732C116.962 372.133 116.982 372.522 117.022 372.923C116.322 372.852 115.632 372.802 114.932 372.782L114.257 372.755C112.682 372.71 111.106 372.783 109.522 372.992C107.172 373.302 104.872 373.942 102.672 374.832C102.402 374.912 102.132 375.003 101.872 375.113C101.412 375.003 100.952 374.883 100.502 374.753C98.1122 373.992 95.8121 373.062 93.6021 371.972C93.9662 369.713 94.0427 360.242 94.2383 356.704L94.2822 356.042C95.3322 346.222 97.8121 336.582 101.132 327.292C101.432 326.442 101.742 325.593 102.062 324.742C104.332 319.162 106.892 313.732 109.912 308.452C111.942 304.722 114.212 301.142 116.722 297.702C120.022 293.093 123.622 288.742 127.522 284.633C127.732 284.392 127.212 283.843 126.412 283.282C127.322 282.253 128.242 281.242 129.192 280.253C129.642 279.742 127.042 278.022 125.192 277.613C124.662 277.232 123.982 276.843 123.292 276.552C123.382 276.463 123.472 276.363 123.562 276.262C124.072 275.692 123.882 275.242 123.282 274.843C122.932 274.622 121.782 273.942 121.152 274.082C120.922 273.762 120.512 273.642 120.142 274.042C119.762 274.432 119.402 274.832 119.032 275.222C118.642 275.122 118.292 275.102 118.122 275.292L116.892 276.653C116.762 276.673 116.642 276.702 116.572 276.792C110.652 283.292 105.142 289.772 100.382 297.213C94.9722 305.673 90.6721 314.692 87.2922 324.133C86.1512 327.31 85.1362 330.521 84.2362 333.761C86.4022 334.112 88.1871 335.898 87.1252 338.474C85.6832 341.972 83.5542 344.797 81.0652 347.492C80.5341 350.522 79.0221 350.551 78.6731 349.865C77.1712 350.884 74.7232 350.964 73.5282 349.455C67.9302 342.391 65.8792 334.815 67.4212 325.903C68.9872 316.855 73.3212 308.569 74.8032 299.484C74.9992 298.283 75.5872 297.5 76.3482 297.051C84.7372 274.886 98.0802 254.876 114.462 237.772C123.842 227.982 134.262 219.113 144.912 210.742L160.792 198.593C162.222 197.702 163.622 196.772 164.972 195.782C166.952 196.272 168.952 196.673 170.992 196.952C176.742 197.742 182.512 197.673 188.282 197.242C192.122 196.912 195.962 196.522 199.792 196.082ZM122.842 412.272C123.019 412.262 132.281 415.736 136.895 417.981L137.122 418.092C142.442 420.732 145.002 422.632 149.782 426.022C150.102 426.252 150.432 426.602 150.432 426.942C150.432 431.88 149.232 437.917 145.082 435.242C144.482 434.856 143.878 434.478 143.269 434.106L142.352 433.552L142.334 433.558C142.34 433.555 142.346 433.548 142.352 433.542C133.312 428.032 123.762 423.712 113.682 420.622C112.992 420.372 118.102 412.652 119.512 413.082C118.702 412.762 122.708 412.28 122.842 412.272ZM142.334 433.558C142.33 433.561 142.326 433.562 142.322 433.562L142.334 433.558Z" transform="translate(-30.00035 -66.00002)" fill="#000000" fill-rule="evenodd" stroke="none"></path></g></g><g transform="translate(159 186)"><g><path d="M175.373 49.5872C175.699 49.4437 175.991 49.2049 176.203 48.8583C178.978 44.3099 179.267 38.8813 178.039 33.5637C176.563 27.172 172.899 20.9588 168.944 16.7559C163.959 11.4582 157.895 7.75374 151.246 4.94731C150.762 4.74287 150.267 4.53098 149.763 4.31514C142.964 1.40541 134.597 -2.01031 127.865 1.47064C125.161 2.86951 123.673 5.20381 123.256 7.7496C122.814 10.4534 123.597 13.4099 125.462 15.7216C128.557 19.5594 133.339 20.3533 138.087 21.0465C139.602 21.2677 141.106 21.486 142.53 21.8229C147.429 22.9821 152.604 24.4361 157.104 26.7244C166.253 31.3762 170.54 38.5898 172.747 48.2853C172.837 48.6781 173.037 48.9988 173.3 49.2406C173.575 49.4928 173.921 49.6579 174.285 49.7192C174.651 49.7808 175.032 49.7375 175.373 49.5872ZM58.3942 19.1934C55.0693 22.4329 51.1339 22.9347 47.1526 23.381C44.9405 23.6313 43.1746 23.8331 41.4369 24.2252C36.6605 25.3034 31.9393 26.9272 27.6319 29.2659C23.1292 31.7106 18.2224 34.659 14.6922 38.4361C13.8528 39.3349 13.0615 40.278 12.2691 41.2232C11.5465 42.0851 10.8505 42.9149 10.1169 43.7149C9.27449 44.6339 8.47449 45.597 7.67875 46.5576C7.1867 47.3681 7.0895 47.5675 6.99041 47.775C6.8413 48.0869 6.66786 48.4359 6.46976 48.8103C6.19845 49.323 5.88066 49.8843 5.54784 50.3932C4.9941 51.3234 4.69697 51.5796 4.44022 51.6942C4.01419 51.8839 3.61015 51.9774 3.21817 51.9268C2.85064 51.8793 2.50438 51.7028 2.16244 51.4138C0.455387 49.9715 -0.0480658 47.6046 0.00353523 45.092C0.0818393 41.2793 1.48813 37.0578 2.78452 34.4628C5.79888 28.4331 9.97938 22.1649 15.0062 17.6646C20.7422 12.5276 27.0177 8.63869 34.2256 5.95894C38.705 4.29304 43.8913 2.76391 48.7713 2.95706C52.284 3.09609 55.6373 4.14026 58.4066 6.74782C60.1072 8.34853 60.9235 10.6254 60.9235 12.9006C60.9235 15.2211 60.0757 17.5554 58.3942 19.1934ZM164.634 78.3299C166.478 78.8824 167.779 78.6212 169.441 77.7551C170.719 77.0896 171.589 76.0387 172.088 74.8117C172.599 73.5559 172.706 72.1077 172.454 70.7659C171.405 65.1948 168.042 60.2513 163.503 57.0672C159.091 53.9728 153.589 52.5435 148.048 53.7341C144.003 54.6036 138.007 58.4424 134.85 63.1243C133.504 65.1203 132.671 67.2595 132.581 69.3723C132.495 71.387 133.008 73.4183 135.676 76.096C135.935 76.177 136.208 76.2208 136.477 76.2208C137.138 76.2208 137.821 75.9439 138.274 75.5441C139.469 74.4935 140.311 73.1636 141.178 71.7329C141.641 70.9679 142.102 70.1976 142.69 69.5195C144.449 67.4927 147.002 65.7736 149.683 65.3262C152.167 64.911 154.406 65.6469 156.181 67.0355C158.256 68.6601 159.713 71.1522 160.252 73.8146C160.472 74.8933 161.036 75.8657 161.818 76.6477C162.607 77.4367 163.615 78.0237 164.634 78.3299ZM46.1749 69.1109C43.7479 67.5587 40.8928 67.0259 37.7287 68.4655C35.256 69.5899 30.9192 73.3385 27.9011 78.2662C25.8363 81.6374 24.3721 85.5922 24.6769 89.7117C24.7477 90.6684 24.3942 91.3738 23.8366 91.8954C23.3962 92.3073 22.7601 92.61 22.013 92.7047C21.3786 92.785 20.6686 92.7125 20.0913 92.5324C18.9931 92.1896 18.4119 91.4772 18.1929 90.8957C16.0797 85.2836 16.9901 79.0208 19.3585 73.3707C22.5547 65.7456 28.3592 59.3585 32.1622 57.2993C38.6698 53.7742 46.347 53.612 52.8639 57.2031C58.4114 60.2596 61.8802 65.1942 65.3301 70.2242C66.0635 71.2934 66.7914 72.3548 67.5436 73.3976C69.0513 75.487 69.2013 77.5593 68.6175 79.3363C67.9707 81.3049 66.3215 82.9663 64.2592 83.8357C62.353 84.6393 60.1407 84.7524 58.1831 83.9268C56.5293 83.2293 55.0117 81.8695 54.0513 79.5625C52.434 75.6771 49.7393 71.3904 46.1749 69.1109ZM127.748 115.98C135.872 104.601 124.366 93.898 116.814 89.3079C114.836 87.8879 116.406 83.1842 120.634 83.9112C159.031 90.5082 139.136 156.649 90.112 120.354C84.2754 115.645 91.3434 105.275 97.6342 109.307C97.9532 109.552 98.2876 109.81 98.6364 110.08C105.704 115.544 118.636 125.542 127.748 115.98ZM117.042 185.1C109.675 187.233 101.768 187.424 94.2589 185.221C87.4481 183.222 80.4549 178.823 75.4423 173.003C70.9894 167.832 68.1055 161.549 68.2187 154.842C68.2316 154.076 68.5055 153.436 68.9268 152.94C69.3804 152.406 70.014 152.039 70.6926 151.88C71.3906 151.716 72.1285 151.774 72.7568 152.059C73.3256 152.318 73.8129 152.757 74.1176 153.398C74.8879 154.41 75.6553 155.407 76.4257 156.376C82.6196 164.024 88.618 169.74 97.9319 171.79C102.985 172.903 108.032 172.409 112.663 170.712C117.62 168.895 122.102 165.7 125.613 161.612C127.2 159.765 129.074 159.011 130.905 158.998C132.982 158.983 135.034 159.948 136.579 161.49C138.099 163.006 139.116 165.065 139.209 167.219C139.29 169.11 138.673 171.085 137.032 172.848C131.626 178.652 124.621 182.904 117.042 185.1Z" transform="translate(54.00004 55.05923)" fill="#000000" fill-rule="evenodd" stroke="none"></path></g></g><g transform="translate(123 338)"></g><g transform="translate(47 241)"></g></g></g></svg>