<?xml version="1.0" standalone="no"?>
<svg viewBox="-350 -150 1500 1500" style="width: 390px; height: 390px; justify-content: center; align-self: center; transform: scale(1, 1);" xmlns="http://www.w3.org/2000/svg"><rect x="-350" y="-150" width="100%" height="100%" fill="#8a2ae3" rx="30"></rect><g transform="rotate(0 441.54943084716797 604.8801727294922)"><g transform="translate(0 459)"><path d="M569.933 257.977C561.249 254.881 552.879 251.305 545.253 246.045C523.27 229.682 508.936 205.057 495.392 181.726C476.314 147.793 462.723 111.635 453.328 73.915C449.291 57.709 447.92 38.919 438.748 24.551C417.956 -5.53401 356.987 -1.63601 324.612 3.64499C302.932 7.48099 298.451 31.743 293.527 49.696C289.427 64.613 286.743 79.699 284.49 94.987C279.13 98.511 273.079 101.373 267.311 103.866C204.452 123.141 193.404 158.875 169.395 214.073C128.844 294.302 18.8088 325.715 2.18783 420.664C-8.52117 483.349 21.9318 542.322 53.3288 594.434C82.5688 651.355 123.39 678.675 188.399 665.227C249.374 651.549 307.974 628.668 367.876 610.987C396.889 603.854 425.856 585.3 456.375 591.769C519.26 605.892 583.871 612.532 648.317 610.699C738.801 614.358 738.787 527.513 729.5 460.26C722.995 355.599 670.205 288.395 569.933 257.977L569.933 257.977Z" transform="translate(90.00037 -39.99969)" fill="#FFFFFF" stroke="none"></path><path d="M794.691 379.885C794.177 383.043 793.572 385.897 792.138 388.798C790.279 392.564 787.675 396.045 784.568 398.93C794.01 419.989 797.814 443.248 798.848 466.184C799.592 485.591 798.788 505.366 795.001 524.457C792.066 539.262 786.359 553.446 776.101 564.713C767.629 574.018 756.623 580.535 744.822 584.684C724.011 592 701.218 592 679.343 589.928C679.829 592.002 680.232 594.075 680.648 596.036C681.984 602.329 683.405 659.119 686.264 672.05C687.473 677.52 688.066 684.97 691.321 689.57C694.417 693.946 696.183 698.84 695.089 704.248C694.27 708.299 691.75 713.34 688.789 716.284C687.399 717.664 687.103 718.253 686.625 718.534C685.746 719.052 684.252 718.525 674.199 719.962C554.944 737 258.844 747.2 101.32 713.336C94.9797 720.916 81.2917 721.231 75.7457 711.882C72.7921 706.904 72.5839 699.582 72.4062 693.331C72.3667 691.944 72.3288 690.61 72.2627 689.366C71.7947 680.547 68.9227 608.328 68.0587 590.024C67.924 587.171 67.7834 584.317 67.6428 581.464C66.8942 566.267 66.1451 551.062 66.2807 535.845C66.3607 526.827 66.7427 517.803 67.6357 508.826C67.9957 505.221 68.0347 499.682 69.9067 495.973C64.8607 481.336 58.5817 467.233 51.1207 453.66C38.9077 450.503 27.0537 446.045 15.8167 440.297C10.6977 437.68 5.36067 435.47 3.10267 429.865C1.09767 424.885 -0.205331 419.82 0.0266694 414.368C0.612669 400.589 3.06067 386.643 5.01767 373.002C7.04267 358.885 9.39967 344.816 12.0987 330.812C20.1557 289.016 29.7697 246.559 46.5427 207.297C62.9817 168.825 87.8947 135.92 123.257 113.04C163.377 87.0808 211.808 72.6538 258.844 66.3328C259.776 66.2075 260.704 66.062 261.628 65.9172C265.973 65.236 270.229 64.5688 274.488 66.0738C274.792 66.1813 275.101 66.2979 275.412 66.4155C276.666 66.8889 277.966 67.3799 279.234 67.3678C281.667 67.3448 284.357 66.5468 286.823 66.2588C293.509 65.4778 300.236 65.1348 306.949 64.6658C312.385 64.2878 318.279 64.2498 323.418 62.2048C334.395 57.8368 340.188 20.1098 341.96 14.0308C343.225 9.69184 344.547 3.30184 348.571 0.802843C350.705 -0.521157 354.159 -0.207157 355.842 1.74184C358.971 5.36231 357.852 11.564 356.911 16.7842C356.659 18.1808 356.419 19.507 356.278 20.6948C355.451 27.6258 352.63 78.5528 315.437 81.0528C281.291 83.348 281.572 86.2632 281.848 89.1198C281.872 89.3748 281.897 89.6293 281.897 89.8828C286.357 97.8228 293.101 108.328 298.802 115.135C306.403 124.208 314.804 132.739 323.85 140.377C353.611 165.509 392.588 180.01 431.606 179.382C452.066 179.053 471.029 174.057 484.741 158.006C497.546 143.016 504.724 116.424 510.138 97.7128C497.288 81.6958 491.704 60.1978 496.569 44.2078C498.023 39.4285 500.777 35.1878 506.05 38.3918C510.489 41.0888 510.132 53.8958 511.271 58.4538C513.648 67.9698 518.892 73.1968 525.49 80.6798C530.16 80.3038 534.529 82.1578 537.8 85.5528C567.749 92.8868 596.421 102.286 620.5 122.238C639.544 138.018 654.709 157.973 668.622 178.263C684.893 201.991 700.417 226.258 716.207 250.309C734 277.411 751.765 304.53 769.652 331.571C774.032 338.193 778.419 344.81 782.816 351.421C785.014 354.727 787.215 358.031 789.418 361.333C791.413 364.321 794.192 367.454 795.212 370.957C795.947 373.483 795.411 376.18 794.971 378.393C794.866 378.921 794.766 379.421 794.691 379.885ZM623.983 371.422C631.544 376.422 637.903 384.003 643.008 391.981C621.696 389.764 600.421 387.208 579.193 384.298C581.972 382.522 584.777 380.785 587.646 379.145C588.559 378.63 589.501 378.088 590.466 377.531C600.569 371.711 613.315 364.368 623.983 371.422ZM262.96 423.524C264.482 426.937 265.993 432.891 269.898 434.42C272.95 435.615 277.089 435.098 280.767 434.639C282.104 434.473 283.38 434.314 284.521 434.247C309.179 432.803 334.259 435.301 358.25 441.154C379.688 446.384 400.104 454.807 419.291 465.665C438.121 476.319 455.845 488.779 474.42 499.854C512.509 522.566 553.793 539.318 596.864 549.846C619.102 555.282 641.892 559.338 664.576 562.405C680.749 564.591 697.311 565.99 713.621 564.68C727.654 563.553 742.78 559.969 753.501 550.289C767.661 537.504 770.402 517.536 771.678 499.484C773.067 477.833 772.853 455.801 767.935 434.573C765.582 424.417 761.998 414.964 757.4 405.624C754.767 400.274 749.956 393.6 748.888 387.113C730.006 386.115 711.815 389.696 694.398 396.263C696.568 396.395 698.737 396.527 700.906 396.67C706.23 397.023 711.543 397.476 716.835 398.157C721.037 398.697 726.366 398.731 730.044 401.072C735.949 404.827 735.796 413.346 731.077 417.965C726.059 422.875 716.507 421.762 709.19 420.91C707.816 420.75 706.52 420.599 705.349 420.499C667.205 417.245 629.132 413.538 591.179 408.473C552.441 403.303 513.974 396.715 475.505 389.858C436.991 382.993 398.181 376.591 359.007 375.313C339.667 374.682 320.221 375.362 301.058 378.17C283.236 380.784 266.506 386.225 249.302 391.129C253.833 401.936 258.188 412.821 262.96 423.524ZM242.096 423.552C244.617 431.733 246.546 441.074 251.927 447.948C257.257 454.76 265.298 457.164 273.628 457.77C279.525 458.198 285.463 458.214 291.398 458.229C295.571 458.24 299.744 458.251 303.9 458.406C324.545 459.173 344.907 462.526 364.643 468.677C383.035 474.41 400.108 483.352 416.554 493.272C431.762 502.446 446.524 512.295 461.737 521.441C457.688 523.297 453.685 525.305 449.66 527.053C441.218 530.719 432.724 534.256 424.192 537.705C407.367 544.505 390.471 551.14 373.402 557.304C338.984 569.733 304 580.592 268.595 589.842C251.709 594.254 234.583 599.407 217.04 600.141C201.484 600.791 187.075 596.394 174.529 587.145C148.507 567.961 127.804 540.271 111.068 512.958C101.125 496.731 92.4477 479.681 85.2707 462.052C81.6407 453.137 78.3487 444.085 75.3857 434.927C73.9957 430.627 72.6777 426.303 71.4297 421.959C70.8807 420.049 70.3547 418.133 69.8337 416.215C96.4427 408.095 123.368 400.765 150.925 396.696C165.638 394.523 180.547 393.423 195.421 393.583C202.804 393.662 210.183 394.061 217.527 394.823C221.48 395.233 225.417 395.761 229.337 396.415C230.957 396.684 232.622 397.082 234.292 397.375C236.843 406.116 239.415 414.85 242.096 423.552Z" transform="translate(41.99993 -1.999843)" fill="#000000" fill-rule="evenodd" stroke="none"></path></g><g transform="translate(225 0)"><g><g><path d="M395.901 175.053C392.111 112.851 371.927 42.3305 312.523 11.7905C181.564 -40.7675 9.3796 91.5885 0.263603 226.8C-2.9144 273.085 22.7836 323.66 69.7446 336.527C80.1856 350.36 95.9756 358.809 111.561 366.141C297.188 462.448 417.095 384.16 395.901 175.053L395.901 175.053Z" transform="translate(36 94.99951)" fill="#FFFFFF" stroke="none"></path><path d="M559.189 199.517C552.629 181.297 545.699 163.217 538.409 145.277C531.309 127.817 524.896 109.98 516.079 93.3471C463.419 -5.99291 367.659 -5.99291 318.159 6.98709C292.489 -4.07291 244.408 -0.95317 217.679 9.02709C174.407 25.1841 121.658 88.7421 103.623 117.298C63.8039 180.347 38.9539 264.264 65.4039 337.12C68.8609 346.642 73.2699 355.461 78.2339 363.96C75.1069 368.198 71.5079 372.212 67.5209 376.156C55.6729 387.878 43.8249 399.214 33.5899 412.435C23.4189 425.574 14.9869 439.546 8.70993 454.951C-3.12608 484.003 -3.69607 516.899 11.9519 544.62C25.5659 568.74 49.6829 586.701 76.8539 588.414C78.2489 588.608 79.6459 588.786 81.0489 588.927C84.6489 594.857 89.0389 600.317 94.0489 605.077C109.399 619.677 145.989 627.167 166.859 627.647C167.929 628.507 169.009 629.367 170.089 630.217C182.859 640.267 196.259 650.407 210.919 657.557C220.849 662.407 233.869 666.457 244.229 662.957C248.929 666.097 256.639 665.437 261.299 662.867C268.959 658.647 275.189 651.047 278.979 643.267C288.169 624.377 285.959 603.707 283.599 583.527C280.999 561.237 278.499 538.937 275.959 516.647C273.969 499.217 271.889 481.497 266.589 464.707C263.849 456.007 260.259 447.647 255.619 439.787C255.739 439.127 255.719 438.467 255.529 437.847C254.009 432.907 250.869 430.317 247.149 426.957C246.669 426.527 246.189 426.087 245.719 425.637C243.859 423.517 241.869 421.547 239.739 419.877C238.919 419.047 238.109 418.207 237.299 417.367C230.569 410.317 224.209 402.907 218.559 394.967C213.079 387.267 208.129 379.227 203.419 371.037C198.629 362.707 195.459 353.517 190.679 345.247C190.269 344.537 189.229 344.397 188.649 344.987C187.169 346.517 186.219 348.217 186.399 350.007L185.659 350.117C185.379 347.417 182.889 345.217 179.509 345.807C174.449 346.687 170.289 347.017 165.909 345.337C166.679 340.227 167.389 335.107 168.089 329.977C169.369 320.537 170.559 311.067 171.579 301.597C174.049 302.187 176.499 303.037 178.899 304.117C182.319 305.647 185.549 307.707 188.309 310.237C191.029 312.737 192.909 316.107 196.229 317.847C200.049 319.837 204.659 316.547 203.539 312.227C201.269 303.497 188.419 298.497 180.469 296.847C177.739 296.277 174.949 296.037 172.159 296.097C172.789 290.017 173.349 283.937 173.809 277.847C174.029 274.967 174.229 272.087 174.419 269.197C180.599 267.327 187.219 266.767 193.649 267.647C195.769 269.337 197.889 271.007 199.939 272.697C206.449 278.077 212.929 283.487 219.329 288.997C219.909 289.487 220.479 289.977 221.059 290.477C224.859 293.747 229.599 290.507 228.959 285.877C223.739 247.937 246.979 217.757 274.189 194.377C304.309 168.487 359.069 165.472 394.889 120.627C411.386 123.985 448.219 133.957 463.419 158.177C484.699 192.117 481.919 222.527 483.539 261.027C485.159 299.557 489.279 339.747 480.529 377.737C472.459 412.767 450.609 442.697 416.709 456.457C415.869 456.797 415.019 457.127 414.169 457.447C396.639 464.057 377.509 465.927 359.069 462.447C338.659 458.587 321.619 449.247 304.639 437.757C303.659 437.107 302.229 438.447 302.969 439.427C325.349 469.087 369.309 478.997 404.179 471.167C405.809 470.797 407.429 470.397 409.039 469.957C401.239 492.387 402.809 517.007 412.969 538.847C419.079 551.987 428.399 563.357 439.749 572.327C452.259 582.207 467.779 590.187 476.459 604.057C484.409 616.767 482.049 631.047 468.439 638.387C465.009 640.247 463.689 646.257 467.089 648.897C468.389 649.897 469.689 650.917 471.019 651.917C478.639 657.667 499.569 668.467 502.959 668.867C533.059 672.437 553.299 650.337 566.269 624.267C581.499 593.667 577.539 556.377 560.759 527.237C547.299 503.857 520.789 480.817 531.329 451.227C535.089 440.657 542.779 431.647 550.249 423.507C558.769 414.237 567.929 405.557 576.099 395.957C584.219 386.427 591.419 376.057 595.439 364.097C601.309 346.617 598.389 327.717 593.979 310.267C584.529 272.807 572.259 235.847 559.189 199.517Z" transform="translate(-84.99982 31.84301)" fill="#000000" stroke="none"></path></g></g><g transform="translate(159 186)"><g><path d="M175.373 49.5872C175.699 49.4437 175.991 49.2049 176.203 48.8583C178.978 44.3099 179.267 38.8813 178.039 33.5637C176.563 27.172 172.899 20.9588 168.944 16.7559C163.959 11.4582 157.895 7.75374 151.246 4.94731C150.762 4.74287 150.267 4.53098 149.763 4.31514C142.964 1.40541 134.597 -2.01031 127.865 1.47064C125.161 2.86951 123.673 5.20381 123.256 7.7496C122.814 10.4534 123.597 13.4099 125.462 15.7216C128.557 19.5594 133.339 20.3533 138.087 21.0465C139.602 21.2677 141.106 21.486 142.53 21.8229C147.429 22.9821 152.604 24.4361 157.104 26.7244C166.253 31.3762 170.54 38.5898 172.747 48.2853C172.837 48.6781 173.037 48.9988 173.3 49.2406C173.575 49.4928 173.921 49.6579 174.285 49.7192C174.651 49.7808 175.032 49.7375 175.373 49.5872ZM58.3942 19.1934C55.0693 22.4329 51.1339 22.9347 47.1526 23.381C44.9405 23.6313 43.1746 23.8331 41.4369 24.2252C36.6605 25.3034 31.9393 26.9272 27.6319 29.2659C23.1292 31.7106 18.2224 34.659 14.6922 38.4361C13.8528 39.3349 13.0615 40.278 12.2691 41.2232C11.5465 42.0851 10.8505 42.9149 10.1169 43.7149C9.27449 44.6339 8.47449 45.597 7.67875 46.5576C7.1867 47.3681 7.0895 47.5675 6.99041 47.775C6.8413 48.0869 6.66786 48.4359 6.46976 48.8103C6.19845 49.323 5.88066 49.8843 5.54784 50.3932C4.9941 51.3234 4.69697 51.5796 4.44022 51.6942C4.01419 51.8839 3.61015 51.9774 3.21817 51.9268C2.85064 51.8793 2.50438 51.7028 2.16244 51.4138C0.455387 49.9715 -0.0480658 47.6046 0.00353523 45.092C0.0818393 41.2793 1.48813 37.0578 2.78452 34.4628C5.79888 28.4331 9.97938 22.1649 15.0062 17.6646C20.7422 12.5276 27.0177 8.63869 34.2256 5.95894C38.705 4.29304 43.8913 2.76391 48.7713 2.95706C52.284 3.09609 55.6373 4.14026 58.4066 6.74782C60.1072 8.34853 60.9235 10.6254 60.9235 12.9006C60.9235 15.2211 60.0757 17.5554 58.3942 19.1934ZM164.634 78.3299C166.478 78.8824 167.779 78.6212 169.441 77.7551C170.719 77.0896 171.589 76.0387 172.088 74.8117C172.599 73.5559 172.706 72.1077 172.454 70.7659C171.405 65.1948 168.042 60.2513 163.503 57.0672C159.091 53.9728 153.589 52.5435 148.048 53.7341C144.003 54.6036 138.007 58.4424 134.85 63.1243C133.504 65.1203 132.671 67.2595 132.581 69.3723C132.495 71.387 133.008 73.4183 135.676 76.096C135.935 76.177 136.208 76.2208 136.477 76.2208C137.138 76.2208 137.821 75.9439 138.274 75.5441C139.469 74.4935 140.311 73.1636 141.178 71.7329C141.641 70.9679 142.102 70.1976 142.69 69.5195C144.449 67.4927 147.002 65.7736 149.683 65.3262C152.167 64.911 154.406 65.6469 156.181 67.0355C158.256 68.6601 159.713 71.1522 160.252 73.8146C160.472 74.8933 161.036 75.8657 161.818 76.6477C162.607 77.4367 163.615 78.0237 164.634 78.3299ZM46.1749 69.1109C43.7479 67.5587 40.8928 67.0259 37.7287 68.4655C35.256 69.5899 30.9192 73.3385 27.9011 78.2662C25.8363 81.6374 24.3721 85.5922 24.6769 89.7117C24.7477 90.6684 24.3942 91.3738 23.8366 91.8954C23.3962 92.3073 22.7601 92.61 22.013 92.7047C21.3786 92.785 20.6686 92.7125 20.0913 92.5324C18.9931 92.1896 18.4119 91.4772 18.1929 90.8957C16.0797 85.2836 16.9901 79.0208 19.3585 73.3707C22.5547 65.7456 28.3592 59.3585 32.1622 57.2993C38.6698 53.7742 46.347 53.612 52.8639 57.2031C58.4114 60.2596 61.8802 65.1942 65.3301 70.2242C66.0635 71.2934 66.7914 72.3548 67.5436 73.3976C69.0513 75.487 69.2013 77.5593 68.6175 79.3363C67.9707 81.3049 66.3215 82.9663 64.2592 83.8357C62.353 84.6393 60.1407 84.7524 58.1831 83.9268C56.5293 83.2293 55.0117 81.8695 54.0513 79.5625C52.434 75.6771 49.7393 71.3904 46.1749 69.1109ZM127.748 115.98C135.872 104.601 124.366 93.898 116.814 89.3079C114.836 87.8879 116.406 83.1842 120.634 83.9112C159.031 90.5082 139.136 156.649 90.112 120.354C84.2754 115.645 91.3434 105.275 97.6342 109.307C97.9532 109.552 98.2876 109.81 98.6364 110.08C105.704 115.544 118.636 125.542 127.748 115.98ZM117.042 185.1C109.675 187.233 101.768 187.424 94.2589 185.221C87.4481 183.222 80.4549 178.823 75.4423 173.003C70.9894 167.832 68.1055 161.549 68.2187 154.842C68.2316 154.076 68.5055 153.436 68.9268 152.94C69.3804 152.406 70.014 152.039 70.6926 151.88C71.3906 151.716 72.1285 151.774 72.7568 152.059C73.3256 152.318 73.8129 152.757 74.1176 153.398C74.8879 154.41 75.6553 155.407 76.4257 156.376C82.6196 164.024 88.618 169.74 97.9319 171.79C102.985 172.903 108.032 172.409 112.663 170.712C117.62 168.895 122.102 165.7 125.613 161.612C127.2 159.765 129.074 159.011 130.905 158.998C132.982 158.983 135.034 159.948 136.579 161.49C138.099 163.006 139.116 165.065 139.209 167.219C139.29 169.11 138.673 171.085 137.032 172.848C131.626 178.652 124.621 182.904 117.042 185.1Z" transform="translate(54.00004 55.05923)" fill="#000000" fill-rule="evenodd" stroke="none"></path></g></g><g transform="translate(123 338)"><g><path d="M137.53 8.24075C128.479 4.00875 118.751 1.48975 108.757 0.596753C104.435 0.209753 95.9446 -1.01125 91.3476 1.80775C89.1976 3.12775 87.3806 4.97175 85.9396 7.22375C85.3776 6.44675 84.6376 5.78475 84.1696 4.94475C81.6526 0.422753 66.2046 0.328753 61.5406 0.712753C50.4806 1.62275 39.7156 4.21975 29.5776 8.58575C11.3766 16.4258 -3.91341 32.7148 0.894588 53.3948C1.57459 56.3238 4.85559 57.4628 7.55859 56.9568C25.7776 53.5418 43.9966 50.1258 62.2166 46.7108C66.4456 45.9188 70.6756 45.1258 74.9046 44.3328C78.7296 43.6158 83.4176 43.3888 87.0476 41.7388C88.5076 42.3628 90.1336 42.7588 91.8696 43.1028C113.791 47.4568 135.74 51.6808 157.675 55.9698C160.305 56.4848 163.755 55.1508 164.227 52.2368C167.375 32.7928 154.992 16.4048 137.53 8.24075" transform="translate(121.0002 28.99985)" fill="#000000" stroke="none"></path></g></g><g transform="translate(47 241)"><g><path d="M409.463 3.8448C410.287 3.9658 411.111 4.0948 411.934 4.2318C418.27 5.2808 419.246 15.2398 413.729 17.9668C409.483 20.0668 406.817 24.2488 407.954 29.0788C408.779 32.5828 407.27 35.3698 404.887 36.8078C404.153 59.4058 400.438 84.7238 382.858 101.261C342.399 128.036 302.322 95.3878 310.705 43.7638C310.105 43.3428 309.577 42.8078 309.189 42.1368C308.911 41.6868 308.672 41.2368 308.449 40.7878C307.565 40.0648 301.03 37.7038 292.541 38.8798C284.052 40.0568 281.355 44.0148 277.062 48.3008C276.399 49.5928 275.264 50.5688 273.479 50.9698C270.103 69.9788 266.632 91.0678 252.071 105.304C215.602 139.383 152.661 111.085 154.989 59.2428C142.316 57.0798 152.882 42.2078 132.833 38.8798C129.215 37.6678 125.792 35.3518 123.536 32.6958C93.5503 29.4738 64.0323 30.9178 35.0393 41.3338C33.2654 42.076 31.4106 42.7524 29.5642 43.4257C19.2827 47.175 9.2641 50.8284 14.9483 65.2098C14.7313 69.9788 8.89832 72.8158 5.46132 69.2928L5.45832 69.2958C5.45332 69.2898 5.45032 69.2828 5.44632 69.2768C-14.0668 34.2407 22.9785 28.378 51.445 23.8729C52.0721 23.7736 52.6952 23.675 53.3133 23.5768C68.6263 20.2758 84.2953 18.8808 99.9463 19.2088C101.76 19.2865 103.703 19.3157 105.697 19.3457C111.762 19.4369 118.302 19.5352 123.121 21.0268C123.147 21.0348 123.172 21.0408 123.197 21.0478C129.862 0.847801 268.445 -3.8812 276.461 29.6238C280.189 29.5282 283.582 29.8068 286.814 30.0721C292.712 30.5563 298.071 30.9962 303.94 29.0368C306.664 4.6888 372.671 -4.4282 401.203 1.9928C403.191 2.1778 405.182 2.5208 407.187 3.0298C408.065 3.1988 408.82 3.4798 409.463 3.8448ZM349.405 100.25C360.918 101.245 373.4 98.3638 380.133 89.3188C391.579 73.6748 394.672 53.4838 394.854 34.9018C391.884 31.9349 390.53 28.6015 389.288 25.5433C386.823 19.475 384.798 14.4901 371.456 15.6018C335.435 17.9104 329.443 32.0442 325.678 40.9243C323.493 46.076 322.059 49.4595 315.945 47.7398C316.759 69.6588 324.574 97.8598 349.405 100.25ZM261.862 67.9668C247.202 136.62 166.924 120.29 158.491 58.4038C166.278 52.9078 164.227 39.3368 173.901 34.4198C188.988 24.7808 207.786 25.032 224.972 25.2616C225.252 25.2654 225.531 25.2691 225.81 25.2728C248.065 26.8018 254.407 36.0208 265.839 46.0788C265.289 52.7968 263.703 60.7588 261.862 67.9668Z" transform="translate(-12.99972 8.999499)" fill="#000000" fill-rule="evenodd" stroke="none"></path></g></g></g></g></svg>