<?xml version="1.0" standalone="no"?>
<svg viewBox="-350 -150 1500 1500" style="width: 390px; height: 390px; justify-content: center; align-self: center; transform: scale(1, 1);" xmlns="http://www.w3.org/2000/svg"><rect x="-350" y="-150" width="100%" height="100%" fill="#cccccc" rx="30"></rect><g transform="rotate(0 408.51788902282715 601.3096446990967)"><g transform="translate(0 459)"><path d="M778.244 749.543C797.57 748.61 789.797 714.805 788.41 702.39C773.109 657.046 776.706 607.574 770.688 560.046C766.939 515.678 762.122 471.448 758.07 427.114C750.112 337.12 692.965 153.916 627.75 124.453C619.535 88.4068 585.604 54.7586 542.674 54.7586C513.394 20.0996 478.151 -4.29271 432.948 0.63229C414.268 1.48229 396.152 21.2943 378.253 25.1203C368.231 26.5023 279.291 22.9453 261.475 33.5263C249.065 39.8983 237.862 51.6733 241.511 66.6643C247.333 84.8263 229.24 65.1743 191.497 84.5593C114.534 130.782 160.524 192.619 162.562 194.535C114.534 261.358 72.5551 315.57 53.1321 397.247C40.5441 457.886 41.9611 520.485 31.4141 581.435C27.6901 602.569 21.9771 622.98 15.7951 643.503C9.09505 670.362 5.83721 737.306 2.14421 737.904C-4.58279 739.575 6.03205 753.387 13.1601 753.398C210.784 786.179 411.522 754.756 610.208 749.622C666.201 747.675 722.254 747.226 778.244 749.543Z" transform="translate(12.50415 -33.85719)" fill="#FFFFFF" stroke="none"></path><path d="M307.855 2.4589L307.101 2.58547C295.271 4.59142 282.709 7.69826 272.682 14.5299C263.284 20.9319 258.076 29.7199 253.737 39.9729L253.581 40.3424C250.197 48.3883 246.334 59.0025 237.322 61.9649C233.114 63.3473 228.493 63.2797 223.988 63.2138C222.432 63.191 220.89 63.1684 219.383 63.2059C213.199 63.3589 206.996 64.1349 201.161 66.2609C178.491 74.5199 162.849 94.8779 156.822 117.79C153.086 131.993 152.635 147.159 154.503 161.686C155.301 167.896 157.897 174.697 163.471 178.174C165.293 179.31 167.277 179.934 169.209 180.018C147.699 202.008 128.456 226.143 110.935 251.506C96.5071 272.393 82.7451 293.942 71.7051 316.836C59.5801 341.981 51.5401 368.321 47.2671 395.897C42.9381 423.83 41.5171 452.06 39.1441 480.196C36.8581 507.315 32.6171 533.833 26.2981 560.305C19.1281 590.339 10.5571 620.108 5.00309 650.506C2.17909 665.96 0.172089 681.582 0.016089 697.307C-0.138911 712.796 0.758089 729.109 5.69609 743.866C7.28009 748.6 11.6581 751.851 16.7541 751.086C21.1851 750.419 26.1371 746.219 25.4921 741.187C23.8091 728.052 21.7231 715.071 21.5031 701.796C21.2841 688.598 22.2531 675.327 23.8641 662.235C26.8818 637.726 32.9411 613.781 38.8117 589.837L40.3591 583.498C46.8471 556.762 52.5511 529.976 55.4461 502.585C58.2691 475.878 59.1211 449.011 61.6471 422.279C64.1921 395.354 68.8771 368.681 78.5101 343.316C87.265 320.265 99.6124 298.732 112.669 277.871L114.414 275.094C137.391 238.648 163.693 204.228 194.565 174.086C211.398 157.65 229.53 142.316 248.664 128.625C258.603 121.513 268.698 114.628 279.099 108.206C286.55 103.605 294.185 99.3049 301.704 94.8199C305.695 97.1379 309.428 100.968 312.048 103.425L314.626 105.867C319.76 110.774 324.767 115.803 329.893 120.717C341.723 132.058 353.196 143.739 365.359 154.735C377.005 165.263 389.507 175.16 403.066 183.12C410.05 187.219 417.373 190.714 424.932 193.622C431.202 196.034 441.728 199.775 446.99 193.984C450.11 191.806 451.223 187.676 448.559 184.44C445.562 177.677 435.143 176.09 428.744 173.569C421.283 170.632 414.17 166.683 407.398 162.414C394.461 154.257 382.785 144.378 371.398 134.211L369.046 132.104C356.11 120.481 343.349 108.636 328.851 98.9469C323.804 95.5729 317.429 91.2979 310.936 89.1229L312.398 88.1889C312.916 87.8509 312.6 86.9759 311.965 87.1609C310.689 87.5319 309.418 87.9229 308.148 88.3269C302.196 86.9439 296.292 87.6819 291.363 92.8679C290.954 93.2979 291.469 93.9479 291.987 93.6769C293.17 93.0619 294.393 92.8159 295.633 92.8419C279.984 99.1169 264.872 107.417 250.545 115.795C231.773 126.771 213.948 139.544 197.399 153.637C190.76 159.292 184.328 165.158 178.076 171.198C177.287 169.175 174.973 167.855 172.442 168.206C171.303 168.364 169.069 161.781 168.827 159.974C168.069 154.323 168.098 148.412 168.301 142.723C168.697 131.549 170.696 120.093 175.383 109.875C183.123 92.9999 198.68 79.2099 217.708 77.6809C228.515 76.8139 239.85 77.5959 249.275 71.2129C256.552 66.284 260.754 58.8084 264.073 50.9261L264.511 49.8729C267.783 41.8919 271.186 33.2229 278.02 27.6029C285.17 21.7238 294.466 19.0659 303.368 16.8945L305.898 16.2849C330.616 10.3786 355.677 10.9613 380.816 11.9458L388.757 12.2629C388.986 12.2729 389.079 11.9339 388.875 11.8269C364.204 -1.1861 334.85 -2.0251 307.855 2.4589ZM399.76 23.7801C393.622 22.0941 387.33 25.8471 385.547 31.8501C383.705 38.0461 383.895 45.1551 383.236 51.5901C382.919 54.6995 383.123 57.8131 383.326 60.9192C383.469 63.1015 383.612 65.2802 383.574 67.4511C380.231 63.8771 376.848 60.3481 373.332 57.0011C372.428 56.1401 371.274 57.2191 371.713 58.2501C378.911 75.1751 390.454 90.9031 402.132 104.969C414.137 119.43 427.664 132.611 441.883 144.887C448.857 150.908 456.055 156.664 463.401 162.225L464.174 162.807C471.923 168.606 480.161 173.64 490.284 172.117C498.934 170.815 505.966 165.543 512.443 159.977L513.703 158.885C520.913 152.598 527.838 145.97 534.422 139.03C547.676 125.061 559.6 109.662 570.06 93.5021C570.181 93.315 570.303 93.1276 570.425 92.9399C572.897 89.1386 575.456 85.2033 574.127 80.4281C573.486 78.1261 572.12 76.5591 570.401 75.6991C569.992 75.1811 569.517 74.6791 568.957 74.2041L568.857 74.1151C568.433 72.9601 568.02 71.8031 567.621 70.6401C566.966 68.8191 566.296 67.0081 565.594 65.2041C564.086 61.3261 562.598 57.4381 560.975 53.6061C559.425 49.9461 557.893 46.2731 556.293 42.6341L556.156 42.3193C554.841 39.2874 553.892 36.5844 550.811 34.9701C550.644 34.8831 550.373 34.8781 550.242 35.0431C548.077 37.7878 548.14 40.9699 548.207 44.2948C548.209 44.4248 548.212 44.5549 548.214 44.6853L548.229 45.7651C548.258 51.1201 548.274 56.4721 548.483 61.8231C548.54 63.2807 548.538 64.9084 548.537 66.6317C548.532 73.9061 548.525 82.884 552.868 87.9571C550.542 91.4671 548.153 94.9361 545.686 98.3471C534.575 113.699 521.866 127.977 508.141 141.036L507.851 141.313C502.313 146.641 495.031 155.2 486.971 155.94C483.654 156.245 480.591 154.478 477.845 152.68L476.353 151.691C472.351 149.039 468.458 146.207 464.595 143.359C447.626 130.843 432.234 116.708 417.082 102.093C411.929 97.1238 406.918 92.0036 401.937 86.8559L395.543 80.2321C393.683 78.3061 391.843 76.3463 390.009 74.3746L386.343 70.4221C389.67 65.1641 394.434 60.9491 397.7 55.5961C401.236 49.8031 405.43 44.3681 407.83 37.9941C410.029 32.1531 405.385 25.3261 399.76 23.7801ZM563.599 43.1334C571.711 40.3194 581.853 42.8734 589.786 45.3314C598.624 48.0714 606.791 53.1174 613.793 59.1104C621.18 65.4304 627.285 73.2344 631.598 81.9524L632.01 82.7923C635.949 90.8792 640.436 101.981 638.45 110.865C638.393 111.117 638.328 111.36 638.254 111.595C654.349 119.518 669.213 129.442 682.157 142.02C697.229 156.665 709.991 173.33 720.791 191.334C763.684 262.842 771.234 348.722 776.3 430.271L777.563 450.948C780.314 495.597 783.533 540.14 791.896 584.172L792.506 587.351C794.379 597.012 796.421 606.688 798.468 616.383C806.188 652.959 813.968 689.819 812.944 727.202C812.555 741.372 791.613 741.276 791.006 727.202C788.72 674.229 776.358 623.083 767.987 570.938C753.258 479.197 760.638 384.617 739.768 293.795C731.578 258.153 718.891 223.58 700.774 191.765C691.825 176.048 681.586 160.861 669.592 147.302C659.273 135.635 648.548 124.407 636.489 114.599C632.635 118.459 624.936 116.492 622.924 110.865C621.542 106.998 621.945 102.477 621.058 98.4264C620.235 94.6674 619.1 90.9404 617.588 87.4004C614.574 80.3454 610.15 73.5704 605.043 67.8604C599.526 61.6884 593.185 56.5604 586.09 52.3264C578.946 48.0634 571.133 46.7904 563.599 43.6754C563.345 43.5704 563.321 43.2304 563.599 43.1334ZM490.625 187.576C490.531 186.673 489.311 186.671 489.219 187.576C487.291 206.218 485.146 224.758 483.806 243.456C482.496 261.739 481.319 280.017 480.773 298.338C479.675 335.252 479.661 372.181 478.995 409.1C478.268 449.36 477.938 489.613 478.327 529.858L473.318 530.22C444.972 532.364 416.602 534.242 388.23 536.072L356.312 538.123C355.902 538.149 355.743 538.545 355.847 538.838C355.408 538.976 355.025 539.287 354.926 539.741C353.481 546.311 353.493 553.189 352.142 559.83C350.721 566.828 348.661 573.77 346.147 580.452C341.126 593.8 333.966 606.494 325.588 618.01C317.207 629.53 307.297 640.17 296.502 649.464C290.801 654.372 285.214 659.169 281.403 665.786C277.683 672.246 275.799 679.485 274.075 686.677L263.584 730.777C263.384 731.62 263.163 732.475 262.94 733.339C261.672 738.249 260.332 743.441 262.254 748.233C265.149 755.453 273.299 758.382 279.451 752.774C286.045 746.764 286.557 734.615 288.361 726.285L294.039 700.059L294.209 699.262C295.661 692.334 296.682 684.792 299.625 678.344C302.506 672.029 307.889 667.048 312.581 662.09L313.231 661.401C333.123 640.231 350.589 614.626 357.36 586.038C359.25 578.058 360.355 569.952 360.434 561.746C360.503 554.591 360.234 546.083 357.41 539.416C357.367 539.314 357.303 539.237 357.238 539.16C396.265 539.526 435.282 539.356 474.309 539.186C475.683 539.181 477.057 539.162 478.432 539.153C478.808 569.316 479.598 599.475 480.956 629.626C482.828 671.211 484.716 712.829 487.578 754.358C487.785 757.371 492.056 757.377 492.265 754.358C494.806 717.481 496.595 680.523 498.258 643.597L498.873 629.942C500.232 599.599 501.489 569.26 501.594 538.884C511.992 538.707 522.389 538.47 532.791 538.178C542.703 537.9 552.611 537.537 562.52 537.152C567.144 536.974 571.768 536.791 576.392 536.604C581.293 536.407 585.626 536.566 588.447 532.015C589.67 530.042 589.012 527.882 587.7 526.22C584.88 522.646 580.543 523.022 576.401 523.381C575.73 523.44 575.064 523.497 574.411 523.538L567.475 523.963L550.628 524.985C544.021 525.388 537.414 525.797 530.808 526.224C521.071 526.852 511.339 527.501 501.608 528.175C501.468 456.22 501.138 384.245 499.478 312.308C499.002 291.653 498.014 271.049 496.537 250.44C495.352 233.913 493.718 217.495 492.02 201.045L490.625 187.576ZM699.227 238.384C699.29 237.426 700.706 237.411 700.727 238.384C700.906 246.624 701.078 254.864 701.249 263.105C702.625 329.507 701.777 396.066 708.439 462.24C711.581 493.441 717.367 524.183 724.062 554.797C727.488 570.462 731.082 586.09 734.497 601.757C737.825 617.026 741.394 632.369 744.034 647.78C746.628 662.926 748.952 678.189 749.995 693.53L750.123 695.532C750.208 696.94 750.354 698.474 750.507 700.08C751.161 706.949 751.94 715.141 748.623 720.48C744.189 727.616 735.7 727.744 730.949 720.932C727.651 716.204 727.398 708.755 727.171 702.109C727.091 699.765 727.015 697.521 726.809 695.532C726.008 687.759 725.161 679.98 724.199 672.225C722.322 657.098 719.849 642.005 717.277 626.981C711.92 595.693 704.15 564.799 698.415 533.561C692.537 501.552 688.359 469.314 688.183 436.724C688.064 414.378 689.634 392.061 691.204 369.756C691.942 359.255 692.681 348.757 693.243 338.259C695.027 304.951 697.055 271.668 699.227 238.384ZM189.527 401.641C189.187 399.591 191.766 398.321 192.955 400.196C206.546 421.618 213.099 444.887 215.861 469.956C218.301 492.081 217.582 514.525 216.367 536.708C215.071 560.368 213.559 584.022 212.03 607.669L209.681 643.932L203.786 734.841C203.364 741.344 201.888 747.257 196.289 750.28C195.58 750.872 194.841 751.403 193.98 751.863C190.955 753.48 186.943 752.663 185.194 749.559L185.895 750.02C186.506 750.405 185.82 749.868 183.837 748.411L182.154 746.233C180.931 744.395 180.15 742.588 179.836 740.403C179.474 737.887 179.728 735.191 179.974 732.575C180.06 731.66 180.145 730.756 180.202 729.872L184.066 670.26C187.071 623.917 190.58 577.587 193.225 531.22C194.457 509.61 195.32 487.979 194.736 466.331C194.154 444.803 193.057 422.91 189.527 401.641ZM595.836 533.129C595.566 532.88 595.127 533.056 595.115 533.428C594.93 539.644 598.101 546.787 600.836 552.947C601.431 554.287 602.005 555.58 602.519 556.806L603.013 557.98C605.993 565.024 609.245 572.075 613.303 578.555C618.047 586.131 623.312 593.39 629.149 600.16C634.652 606.543 640.847 612.076 646.809 618.003C652.727 623.887 656.334 630.017 658.227 638.139C660.374 647.362 661.316 656.935 662.476 666.321L662.977 670.446C663.961 678.696 664.84 686.959 665.615 695.232C665.819 697.406 665.914 699.759 666.013 702.192C666.37 710.955 666.768 720.741 672.412 726.828C676.609 731.355 683.668 729.7 686.773 724.979C689.673 720.566 689.548 715.442 689.085 710.392L688.926 708.757C688.406 703.598 687.77 698.447 687.132 693.301C685.82 682.722 684.365 672.158 682.741 661.622L682.449 659.702C679.786 641.949 677.747 623.041 665.125 609.265C659.076 602.663 651.615 597.344 644.957 591.381C638.812 585.879 632.888 580.042 627.33 573.948C621.354 567.395 615.425 560.707 610.099 553.611C607.441 550.069 604.906 546.433 602.492 542.721C600.399 539.502 598.68 535.746 595.836 533.129Z" transform="translate(2.000311 -20.99981)" fill="#000000" fill-rule="evenodd" stroke="none"></path></g><g transform="translate(225 0)"><g><g><path d="M151.977 0.371225C303.547 -7.08251 371.943 99.6354 376.367 147.301C379.438 180.389 359.889 218.526 359.889 248.092C359.889 263.184 378.367 295.585 369.765 317.581C350.618 366.54 310.078 420.875 258.418 420.875C206.758 420.875 139.525 435.162 82.4429 353.43C77.087 345.761 9.34322 302.176 2.76186 260.759C-13.6318 157.595 43.825 5.68978 151.977 0.371225Z" transform="translate(43.41895 82.30085)" fill="#FFFFFF" stroke="none"></path><path d="M243.95 0.0579795C235.82 -0.422021 226.67 2.05798 221.25 8.25798C204.68 2.74798 187.111 4.35798 172.95 15.208C160.07 10.429 144.9 14.718 136.75 25.858C120.81 21.988 103.08 31.808 97.941 47.388C87.441 48.548 78.31 59.508 81.48 69.658C68.7 62.618 53.46 74.268 51.98 87.908C46.25 91.208 40.76 95.108 37.85 101.258C35.67 105.868 35.31 110.679 36.68 115.138C30.13 119.498 24.06 125.008 22.781 133.098C22.05 137.728 22.88 142.298 25.12 145.988C14.05 154.648 9.00998 169.488 13.521 183.168C8.34998 188.708 4.21998 195.398 4.02098 203.168C3.87998 208.528 5.79998 214.078 9.39998 218.058C4.54998 225.208 0.499979 232.929 0.039979 241.768C-0.330021 248.848 1.87998 255.478 6.17998 260.679C-0.090021 271.598 2.16998 286.148 10.72 295.348C5.96998 306.648 9.13998 320.318 17.89 328.828C17.261 331.148 17.119 333.546 17.341 335.945C16.726 338.091 16.482 340.359 16.626 342.626C17.136 350.588 22.101 356.162 28.607 359.567L28.974 360.095C27.558 365.377 27.976 371.184 30.871 376.537C33.982 382.287 39.678 386.411 45.994 388.213C46.648 392.877 48.583 397.369 51.767 400.896C55.58 405.119 60.442 407.626 65.628 408.653C66.316 413.914 68.633 418.977 72.597 422.901C76.914 427.175 82.874 429.311 88.899 429.426C90.711 434.177 93.899 438.444 98.562 441.641C105.763 446.578 115.077 447.122 123.03 444.076C123.445 444.195 123.863 444.301 124.279 444.411C129.507 447.746 135.588 449.595 142.244 449.712C147.215 449.799 152.362 448.772 157.008 446.713C161.356 449.491 166.713 450.569 171.585 449.211C172.036 450.226 172.466 451.247 172.861 452.278C174.97 457.848 176.47 463.628 178.43 469.248C181.031 476.688 183.861 482.398 192.31 483.478C195.31 483.868 198.57 481.508 200.01 479.068C203.231 473.553 201.112 468.415 198.948 463.168C198.679 462.515 198.409 461.86 198.148 461.202L197.771 460.228C195.66 454.638 193.7 449.008 191.26 443.548C186.99 434.048 180.84 425.748 174.031 417.918C167.59 410.518 160.21 404.018 153.07 397.308C146.47 391.118 140.51 384.458 134.7 377.568C138.72 376.948 141.29 375.238 142.85 370.778C143.35 369.348 142.72 367.868 141.8 366.808C138.685 363.185 134.625 363.267 130.393 363.353C128.377 363.395 126.321 363.436 124.31 363.078C118.67 362.078 113.12 359.698 108.781 355.898C99.85 348.088 96.531 336.328 97.99 324.788C99.33 314.208 103.81 305.408 113.49 300.429C117.22 298.508 121.74 297.028 125.861 296.258C126.99 296.048 128.111 295.929 129.24 295.868C130.361 297.458 132.25 298.538 135.021 298.468C135.173 298.465 135.322 298.452 135.472 298.445C143.231 301.676 153.027 302.131 159.217 296.412C159.804 295.976 160.318 295.459 160.748 294.871C161.237 294.66 161.727 294.426 162.22 294.139C171.954 288.458 177.935 278.232 178.389 267.326C183.537 262.696 187.513 256.751 189.004 249.917C190.05 245.125 189.488 240.351 187.619 236.463C189.392 232.981 190.476 229.104 190.88 224.78C191.126 222.153 190.898 219.421 190.183 216.859C194.177 214.084 197.588 210.484 200.053 206.309C212.089 210.577 225.805 209.599 236.956 203.247C243.058 207.409 250.976 209.032 258.313 208.107C263.337 207.473 268.033 205.705 272.324 203.115C276.341 204.687 280.68 205.518 284.892 205.66C290.581 205.853 296.109 204.122 301.099 201.492L301.546 201.242C303.711 201.355 305.888 201.208 308.037 200.829C311.047 203.148 314.562 204.823 318.097 205.597C325.956 207.319 333.962 205.362 340.316 200.826C350.829 207.227 365.415 206.633 375.855 200.086C385.171 205.841 397.386 205.358 406.824 199.908C411.173 203.941 416.635 206.727 422.51 207.874L422.04 211.179C420.74 220.378 419.75 229.578 419.54 238.868C419.12 257.679 420.271 276.478 422.34 295.168C424.111 311.168 426.941 327.118 428.57 343.058C428.521 343.818 428.48 344.568 428.48 345.328C428.47 346.788 428.72 348.118 429.14 349.318C430.45 365.798 430.16 382.268 425.72 398.778C413.47 444.398 372.88 482.448 324.55 479.728C321.75 479.568 318.95 479.348 316.15 479.068C314.63 478.908 313.111 478.748 311.59 478.568L309.66 478.328C309.64 478.318 309.62 478.318 309.6 478.318L309.5 478.308L309.3 478.278L308.65 478.198C302.1 477.278 295.57 476.108 289.12 474.638C282.88 473.208 276.89 471.278 270.85 469.198L270.4 469.046C266.812 467.853 263.471 467.215 259.65 467.858C259.32 467.908 258.99 468.008 258.65 468.058C258.611 468.058 258.59 468.058 258.55 468.068L258.521 468.068L257.947 468.107C257.184 468.155 256.43 468.184 255.67 468.168L255.446 468.168C251.973 468.233 249.964 471.645 250.611 474.818C251.771 480.518 254.39 485.358 259.43 488.498C263.934 491.302 269.415 492.909 274.613 494.302L276.63 494.838C289.17 498.158 302.13 500.088 315.031 501.378C325.31 502.398 335.16 502.768 345.4 501.268C359.63 499.188 373.57 494.208 385.98 486.938C411.07 472.228 430.31 448.648 440.89 421.679C445.052 411.088 447.74 399.936 448.971 388.627C449.922 388.607 450.915 388.48 451.956 388.203C464.347 384.904 471.387 371.857 469.548 360.099C472.63 356.941 474.972 353.02 476.355 348.764C477.351 345.697 477.756 342.636 477.649 339.643C480.898 337.761 483.714 335.061 485.806 331.436C488.741 326.35 489.548 320.727 488.613 315.362C495.202 309.052 498.846 299.369 497.636 290.407C502.179 286.063 505.175 280.188 505.729 273.627C506.223 267.767 504.542 262.119 501.345 257.514C503.052 253.181 503.199 248.419 502.044 243.911C504.681 236.832 505.196 228.871 501.738 221.891C500.79 219.981 499.527 218.339 498.034 217.029C498.181 216.192 498.345 215.343 498.54 214.458L498.652 213.929C499.755 208.5 499.035 204.181 497.031 198.998C495.445 194.895 495.772 191.03 496.113 186.994C496.256 185.305 496.401 183.587 496.41 181.808C496.441 175.348 493.59 168.108 488.07 164.998C489.54 155.868 486.41 146.198 479.2 140.818C478.15 131.658 474.14 122.998 466.25 118.968C467 110.988 466.31 102.868 462.16 95.788C458.59 89.679 452.771 85.058 446.07 83.288C444.2 66.408 428.37 52.938 411.6 52.398C407.56 39.679 393.2 30.938 380 32.988C369.3 19.078 351.06 12.708 334.26 17.518C329.41 11.598 321.91 8.08798 314.34 6.86798C307.386 5.75303 300.577 6.61988 293.756 7.48836C288.463 8.16219 283.163 8.83701 277.781 8.58798C266.031 8.04798 255.76 0.757979 243.95 0.0579795ZM143.031 329.178C137.79 321.748 130.33 313.628 120.38 314.168C114.08 314.508 106.79 318.978 107.111 325.948C107.13 326.458 107.771 326.788 108.15 326.378C110.91 323.438 114.67 322.138 118.49 322.758C114.6 324.518 110.861 328.388 112.47 332.828C113.48 335.608 116.46 337.978 119.611 336.878C122.05 336.018 123.84 334.418 124.66 331.928C124.662 331.921 124.675 331.878 124.696 331.814C124.777 331.556 124.966 330.955 124.95 330.898C125.14 330.508 125.37 330.128 125.59 329.758L125.888 329.252C126.184 328.75 126.482 328.261 126.82 327.788C128.83 330.188 130.33 333.088 131.65 335.828C135.33 343.508 147.95 336.148 143.031 329.178Z" transform="translate(-33.00008 7.99922)" fill="#000000" fill-rule="evenodd" stroke="none"></path></g></g><g transform="translate(159 186)"><g><path d="M180.345 18.044C172.985 7.315 160.323 -0.00399509 147.164 3.27348e-06C142.229 0.00100491 134.692 0.532005 130.871 4.05501C128.17 6.545 127.769 9.74901 131.039 11.545C131.764 11.943 132.549 11.143 132.245 10.479C132.877 10.103 133.563 9.856 134.31 9.75801C135.705 9.51641 137.493 9.76313 139.035 10.0215L140.135 10.21C143.539 10.789 147.019 11.93 150.166 13.337C156.616 16.219 162.057 20.646 166.278 26.267L166.436 26.4716C169.09 29.8475 173.396 31.5439 177.423 29.188C181.013 27.089 182.846 21.689 180.345 18.044ZM33.7267 5.1487L35.2249 4.7115C36.3256 4.39269 37.4295 4.04111 38.5332 3.68958C45.2363 1.55471 51.9341 -0.578458 57.8689 4.6385C60.5829 7.0245 61.1419 11.9825 59.1999 14.9585C55.5157 20.6055 50.3495 20.8314 44.5982 21.0828C43.4432 21.1333 42.2647 21.1848 41.0699 21.2815C35.6299 21.7215 30.2709 23.3195 25.1929 25.3165C21.0429 26.9495 17.1939 29.2485 13.5599 31.8125C9.98991 34.3335 7.55091 38.2745 3.88891 40.5435C2.54691 41.3755 0.996911 40.5195 0.514911 39.1705C-1.19309 34.3855 1.69291 28.4245 4.13491 24.3475C7.11591 19.3735 11.6439 15.3055 16.5129 12.2275C21.8446 8.85643 27.7404 6.91001 33.7267 5.1487ZM148.26 42.0111C150.546 39.7239 153.758 40.0619 156.144 41.862L156.461 42.1101C158.71 43.1091 160.571 45.2921 161.793 47.3151C163.062 49.4161 163.905 51.5561 163.938 53.8691C169.472 53.8871 174.773 55.5471 178.836 60.0151C180.148 61.4571 181.044 63.6811 180.322 65.6361L179.892 66.7991C178.527 70.4915 172.394 72.617 170.309 68.2748L170.213 68.0631C167.998 62.9071 159.495 63.4481 154.976 63.9751C151.826 64.3441 148.715 65.1271 145.673 66.0041C144.601 66.3131 143.539 66.6485 142.478 66.991L141.417 67.3351C140.851 67.5181 137.903 69.1191 139.737 68.7401C140.23 68.6381 140.601 69.3561 140.098 69.5971C137.912 70.6421 135.58 68.5611 135.726 66.2131C135.979 62.1373 142.451 59.9025 145.565 58.4971L145.752 58.4121C146.946 57.8601 148.197 57.3311 149.488 56.8401C148.762 55.7601 148.162 54.5601 147.663 53.2721C147.191 52.0561 146.876 50.8741 146.703 49.5811C146.533 48.9491 146.533 48.3171 146.703 47.6841L146.729 47.5031C146.641 47.0851 146.599 46.6531 146.605 46.2181L146.587 46.0491L146.605 46.0491C146.666 44.5261 147.271 43.0001 148.26 42.0111ZM46.6698 41.9793C45.1228 41.3213 43.3608 41.1353 41.6148 41.6163C38.9898 42.3403 36.9398 44.5483 36.1548 47.0993L36.1418 47.0903L36.1188 47.2413C35.9768 47.7363 35.8788 48.2413 35.8358 48.7523L35.392 49.8363C35.1792 50.3632 34.9774 50.8917 34.8148 51.4353C33.7648 54.0583 34.2398 57.2763 35.7758 59.7193C25.2328 63.1083 14.5308 68.6733 6.17181 75.5403C4.40281 76.9943 6.43281 79.4803 8.22081 79.0483L8.21881 79.0553L9.63926 78.6946C20.0732 75.9715 29.9119 71.6317 40.6188 69.6743C45.8048 68.7253 51.3028 68.3903 56.5568 68.9753C58.7382 69.2179 60.8035 69.8406 62.8449 70.4561C66.0049 71.4089 69.1077 72.3445 72.4958 71.8263C76.1188 71.2723 77.9698 66.0943 75.9978 63.2183C72.4865 58.1004 65.9839 57.0907 60.0609 56.5402L59.0018 56.4453C57.9058 56.3503 56.8078 56.3133 55.7098 56.3023C55.8358 54.8923 55.7448 53.4373 55.3708 52.1563C55.0668 51.1143 54.2218 50.0233 54.0308 48.9853L54.4448 50.0393L54.2905 49.6242C54.1921 49.3461 54.1028 49.065 54.0228 48.7803C53.0088 45.4923 50.1238 42.6123 46.6698 41.9793ZM130.428 106.934C135.005 95.5229 120.515 88.1299 111.732 85.4159C109.366 84.5139 109.503 80.1089 113.87 80.0099C153.531 79.1059 153.748 140.665 94.7886 117.34C87.6536 114.223 91.4956 103.882 98.8746 106.326C99.2608 106.485 99.6663 106.654 100.089 106.83C108.658 110.396 124.337 116.921 130.428 106.934ZM123.534 146.337C126.965 140.283 137.203 141.267 138.768 148.328C141.943 162.642 124.874 175.86 111.91 176.19C99.0265 176.517 84.5715 165.552 86.4365 151.702C86.8975 148.276 91.4735 148.692 93.0335 150.84L93.6392 151.664C97.8762 157.356 103.467 163.248 111.331 161.86C114.59 161.286 117.55 159.25 119.52 156.629C121.896 153.466 121.635 149.689 123.534 146.337Z" transform="translate(53.99999 59.00019)" fill="#000000" fill-rule="evenodd" stroke="none"></path></g></g><g transform="translate(123 338)"></g><g transform="translate(47 241)"></g></g></g></svg>