<?xml version="1.0" standalone="no"?>
<svg viewBox="-350 -150 1500 1500" style="width: 390px; height: 390px; justify-content: center; align-self: center; transform: scale(1, 1);" xmlns="http://www.w3.org/2000/svg"><rect x="-350" y="-150" width="100%" height="100%" fill="#fbeaeb" rx="30"></rect><g transform="rotate(0 433.77931213378906 604.8164443969727)"><g transform="translate(0 459)"><path d="M689.556 274.831C675.675 209.069 626.446 158.039 560.238 132.618C547.512 125.42 535.175 94.5342 518.072 88.8779C515.33 87.9712 519.657 95.1871 518.072 95.618C512.415 97.1551 506.077 97.3156 499.832 91.7648C488.67 81.8443 485.169 52.861 478.382 39.7616C442.591 -29.3244 353.229 -2.29315 341.257 74.0798C332.909 79.5207 321.109 84.3138 312.022 88.6982C302.665 93.213 294.435 104.148 284.792 108.058C276.189 111.546 262.012 109.075 253.343 112.116C213.469 126.103 179.697 143.752 153.22 179.512C147.641 187.054 141.352 196.326 136.275 203.945C110.101 234.076 91.9208 267.848 75.1768 304.081C28.3308 410.432 15.5888 528.186 4.1568 642.772C4.4168 662.821 -8.8872 718.415 10.7898 728.027C9.6138 729.246 10.0398 731.695 12.2218 731.674C62.1148 731.17 111.892 735.635 161.011 744.316C184.71 748.505 208.282 754.249 232.422 755.193C282.533 754.847 332.464 746.45 382.509 754.396C442.671 754.396 515.787 752.643 582.716 750.07C645.269 747.665 708.156 753.096 769.934 742.459C774.824 741.685 777.212 735.721 776.187 731.447C768.939 705.037 765.381 677.855 761.314 650.824C762.124 633.486 760.675 615.386 754.261 599.237C737.503 490.219 716.014 381.912 689.556 274.831Z" transform="translate(45.9999 -47.39975)" fill="#FFFFFF" stroke="none"></path><path d="M359.488 0.337667C359.368 -0.0923335 358.698 -0.132333 358.589 0.337667C356.298 9.94767 354.488 19.6177 350.458 28.7277C348.589 32.9377 346.339 36.9877 343.798 40.8277C340.929 45.1477 336.778 48.7077 334.948 53.5577C334.238 55.4377 334.999 58.2877 336.538 59.5777C336.671 59.691 336.808 59.801 336.946 59.9091L337.788 60.5477C339.438 61.7477 342.389 61.6777 344.038 60.5477C347.992 57.841 350.279 53.3658 352.309 49.0224L353.139 47.2377C355.509 42.1377 357.469 36.8477 358.849 31.3977C361.408 21.3377 362.458 10.3377 359.488 0.337667ZM497.787 39.3069C499.047 45.0669 501.537 50.2379 504.877 55.0479C506.468 57.3479 508.277 59.4879 510.447 61.2779C512.308 62.8069 514.428 63.8069 516.407 65.1379C519.287 64.6869 522.297 65.7779 524.317 67.8969L523.998 64.7979C523.897 63.7979 525.558 63.5979 525.748 64.5669C534.497 108.689 542.476 152.839 549.383 197.28L552.41 216.905L555.259 235.33C559.988 266.031 564.563 296.721 568.008 327.647C572.598 368.918 576.457 410.298 579.277 451.737C582.107 493.468 583.848 535.227 585.088 577.038C585.397 587.578 585.728 598.108 586.047 608.647L588.183 596.046C590.315 583.443 592.406 570.828 594.197 558.168C600.627 512.858 605.768 467.227 608.277 421.528C610.578 379.708 609.808 337.058 599.168 296.317C596.487 286.067 593.207 275.977 589.248 266.147C585.407 256.588 580.168 247.727 576.037 238.308C571.237 227.348 569.797 217.008 572.268 205.208C574.428 194.928 578.218 185.258 578.897 174.678C580.168 155.038 573.777 136.017 564.748 118.828C562.367 114.298 559.857 109.828 557.237 105.397C549.308 92.0079 540.367 79.1069 531.088 66.7379C530.588 66.0779 531.647 65.3479 532.188 65.8879C540.647 74.2479 549.897 82.4679 557.508 91.5979C561.207 96.0379 564.817 100.567 568.237 105.218C605.758 111.488 637.998 134.857 660.037 165.718C685.047 200.738 697.697 242.888 707.058 284.397C717.468 330.528 726.248 377.078 735.598 423.437C745.277 471.408 754.907 519.378 764.647 567.338C769.487 591.147 774.328 614.958 779.157 638.778C781.607 650.838 784.178 662.868 786.867 674.888C788.248 681.048 789.728 687.198 791.008 693.378C792.447 700.348 791.107 704.807 786.388 709.928C784.647 711.828 781.897 711.798 779.737 710.788L779.062 710.47L778.409 710.155C775.737 708.841 773.641 707.48 771.978 704.557C770.147 701.348 769.857 697.788 769.228 694.218C768.067 687.647 766.918 681.078 765.758 674.498C764.025 664.658 762.141 654.846 760.222 645.036L750.599 596.014C748.032 582.942 745.462 569.872 742.877 556.808C733.647 510.088 724.407 463.378 715.168 416.668C706.297 371.817 698.447 326.658 688.348 282.067L687.774 279.555L687.19 277.046C678.16 238.606 665.542 201.422 642.647 168.848C625.027 143.798 600.558 121.428 571.737 110.107C573.768 113.028 575.718 116.008 577.578 119.048C589.258 138.128 597.787 160.778 595.787 183.498C595.384 188.074 594.429 192.617 593.475 197.162C592.114 203.641 590.753 210.121 590.987 216.698C591.357 226.638 597.508 235.368 601.758 244.017C611.407 263.618 618.388 284.448 622.888 305.817C631.918 348.727 631.888 392.878 628.777 436.437C625.397 483.788 618.978 531.128 611.668 578.017C607.918 602.067 602.928 625.918 599.107 649.928C597.218 661.767 594.647 673.578 592.397 685.358L591.325 690.986C590.725 694.109 590.102 697.223 589.382 700.303L588.938 702.147L588.938 702.477C588.918 704.748 588.297 706.628 587.297 708.128C585.928 712.517 584.228 716.798 581.968 720.908C580.808 723.008 579.127 724.187 577.297 724.618C575.457 728.828 571.287 732.067 566.308 732.048L500.817 731.798C462.777 731.647 424.737 731.397 386.697 731.187C377.098 731.138 367.508 730.958 357.918 730.708C348.928 730.458 340.308 729.378 331.418 728.258C321.377 726.998 315.938 719.888 317.438 709.858C317.768 707.647 318.127 705.448 318.468 703.248C316.468 703.908 314.088 703.598 312.478 702.028L310.969 700.551C308.877 698.481 307.005 696.448 305.678 693.687C304.308 690.848 303.197 687.848 301.987 684.948C299.377 678.708 296.838 672.448 294.367 666.158C289.418 653.578 284.468 640.948 279.867 628.237C270.758 603.067 262.697 577.517 255.688 551.678C243.188 505.578 234.147 458.588 228.447 411.178L227.085 399.878L226.688 396.541C224.527 378.165 222.708 359.504 223.567 341.168C224.098 329.687 225.877 318.118 230.168 307.397C234.127 297.508 240.237 289.048 246.047 280.208L246.712 279.187L247.381 278.142C252.462 270.113 256.505 261.719 256.707 251.968C256.913 242.073 254.03 232.443 250.807 223.179L250.003 220.894L249.464 219.382C248.874 217.734 248.276 216.087 247.679 214.441C241.34 196.971 235.025 179.568 237.377 160.528C241.178 129.848 259.777 105.118 283.178 86.0479C262.367 90.1679 241.768 98.3069 223.588 108.628C202.117 120.828 182.787 136.928 166.117 155.098C134.617 189.437 112.127 230.638 93.7183 273.178C74.4473 317.698 60.1573 364.348 49.3883 411.608C38.5583 459.138 31.3083 507.428 26.3573 555.908C23.8883 580.038 21.9473 604.227 20.3383 628.428C19.5183 640.828 18.8983 653.248 17.9383 665.628C16.9783 677.998 16.5473 690.557 13.5273 702.598C12.1173 708.208 2.60733 708.778 1.58833 702.598C-0.673143 688.796 -0.0411245 674.523 0.590032 660.548L0.647327 659.278C1.26833 645.358 2.07833 631.448 3.03733 617.538C4.99833 589.108 7.61733 560.718 11.0373 532.418C23.0273 433.078 45.1383 334.258 88.5083 243.578C108.928 200.868 135.138 159.368 171.598 128.528C188.957 113.857 208.527 102.147 229.617 93.6679C248.478 86.0779 267.638 82.4879 287.678 82.4979C297.728 74.7979 308.518 68.0879 319.297 62.3569C319.947 62.0079 320.627 62.8479 320.088 63.3879C319.808 63.6579 319.537 63.9369 319.258 64.1979C320.478 64.2779 321.737 64.8479 322.867 66.0379C326.828 70.1869 330.168 75.3779 333.157 80.7669C337.707 86.4479 342.047 92.3169 346.588 97.9369C353.857 106.937 361.297 115.807 368.828 124.607C381.476 139.396 394.535 153.906 408.153 167.831L410.428 170.147C417.487 177.298 424.638 185.857 432.987 191.517L433.433 191.813C436.956 194.108 439.453 194.525 442.457 191.098C445.188 187.978 447.461 184.358 449.798 180.918L450.338 180.128C462.268 162.798 473.328 144.828 483.338 126.328C487.901 117.909 492.241 109.367 496.36 100.731L497.588 98.1379C499.828 93.3779 502.258 88.7079 504.107 83.8069C504.537 82.6579 504.957 81.5079 505.367 80.3679C499.067 76.2379 494.188 67.2979 492.418 60.2979C490.578 53.0279 491.508 45.5669 494.787 38.9179C495.407 37.6679 497.487 37.9769 497.787 39.3069ZM313.008 70.2179C307.737 75.1869 302.348 80.0479 297.037 84.9879L295.092 86.8059L293.156 88.6324C283.822 97.4836 274.88 106.697 267.428 117.278C253.748 136.708 245.598 160.397 251.287 184.118C256.008 203.767 266.838 221.578 269.748 241.718C271.207 251.808 270.498 261.948 266.697 271.477C262.817 281.198 256.617 289.528 251.047 298.298C238.947 317.358 237.297 338.278 238.498 360.358C239.758 383.418 242.407 406.487 245.678 429.338C252.297 475.638 262.277 521.458 275.487 566.328C282.098 588.798 289.907 610.788 297.678 632.868C301.547 643.858 306.058 654.588 310.707 665.267C313.157 670.888 315.668 676.477 318.218 682.057C317.277 674.178 317.277 666.088 316.817 658.258C316.157 647.038 315.317 635.838 314.547 624.628C312.978 601.878 311.578 579.108 310.328 556.338C305.898 475.138 302.638 393.868 302.877 312.538C302.998 271.868 303.828 231.198 305.578 190.567C306.399 171.434 307.987 152.318 309.423 133.212L309.728 129.118C310.998 111.968 312.518 94.7779 315.127 77.7779C314.355 76.0348 313.684 74.2695 313.187 72.459L313.008 71.7779L313.138 71.7979C313.018 71.2669 312.978 70.7379 313.008 70.2179ZM184.297 417.668C185.598 390.048 186.127 362.378 186.999 334.737C187.018 333.987 185.968 334.038 185.877 334.737C182.168 362.677 178.008 390.557 173.808 418.427L166.508 412.248C158.168 405.217 149.877 398.298 141.117 391.828C140.668 391.487 140.037 392.147 140.348 392.597C146.598 401.557 153.328 410.048 160.147 418.608C163.697 423.048 167.287 427.458 170.758 431.967L171.607 433.067C169.178 449.198 166.758 465.328 164.428 481.467C158.854 520.081 154.016 558.812 149.288 597.549L145.518 628.538C142.207 655.737 138.428 682.868 134.498 709.977C133.498 716.887 136.588 723.517 144.207 724.548C151.737 725.567 156.578 720.048 157.428 713.088C163.397 663.937 169.377 614.778 174.547 565.538C178.681 526.193 180.944 486.83 182.873 447.385L183.297 438.618C184.657 438.158 185.748 436.918 186.117 435.548C187.067 431.967 185.877 429.358 183.848 427.097L184.297 417.668ZM671.738 411.618C674.198 405.547 676.048 399.137 677.368 392.727C677.509 392.067 676.618 391.847 676.378 392.457C673.068 400.877 667.458 410.937 659.868 417.037C658.688 409.467 657.509 401.887 656.919 394.327C656.858 393.618 655.808 393.597 655.788 394.327C655.538 403.207 654.618 412.087 653.919 420.977C652.298 422.487 651.788 424.957 652.238 427.067L652.419 427.887C652.558 428.507 652.889 429.147 653.348 429.687C653.268 431.287 653.198 432.877 653.158 434.467C652.818 447.517 652.579 460.547 652.868 473.597L652.931 476.935C653 481.438 653.012 485.942 653.024 490.445C653.045 498.179 653.065 505.913 653.378 513.647C653.898 526.658 654.698 539.658 655.648 552.647C659.344 602.951 667.252 653.126 676.364 702.73L677.581 709.327C678.845 716.426 679.071 725.877 684.518 731.118C689.759 736.147 697.929 736.917 704.288 733.717C718.298 726.637 714.538 707.457 700.778 704.147L699.441 696.977C697.71 687.608 696.049 678.232 694.458 668.847C690.688 646.627 687.458 624.347 684.288 602.037C681.219 580.397 678.348 558.727 675.528 537.057C672.648 514.927 668.938 492.847 666.589 470.658L666.008 465.342C664.814 454.715 663.434 444.116 662.208 433.487L662.02 431.912L661.818 430.337C662.469 429.887 663.009 429.297 663.339 428.517C665.798 422.727 669.368 417.477 671.738 411.618Z" transform="translate(38.00087 -21.99957)" fill="#000000" fill-rule="evenodd" stroke="none"></path></g><g transform="translate(225 0)"><g><g><path d="M171.204 0.0755503C321.717 4.84064 330.795 76.3325 330.795 196.227C330.795 316.122 252.716 391.673 223.966 404.866C195.216 418.058 119.512 474.723 51.1949 448.61C-17.1227 422.497 2.66114 312.174 2.66114 264.772C2.66114 217.369 20.6916 -4.68954 171.204 0.0755503Z" transform="translate(89.07787 105.0979)" fill="#FFFFFF" stroke="none"></path><path d="M283.393 3.02731C319.252 9.86731 353.303 29.5473 377.893 56.4173C420.313 102.777 437.152 167.737 440.933 229.117C443.393 269.167 439.643 309.247 428.612 347.896C418.112 384.627 401.032 419.777 379.502 451.476C380.702 453.277 381.942 455.047 383.202 456.816C388.563 464.316 393.893 471.887 398.952 479.598C408.212 493.697 416.433 508.896 418.252 525.697C418.553 528.417 418.672 531.178 418.612 533.976C418.442 541.857 408.862 548.997 401.592 543.747C392.532 537.207 382.452 538.197 372.292 541.587C367.002 548.287 361.612 554.896 356.112 561.428C342.353 577.747 328.172 594.396 311.212 607.507C296.332 619.017 279.103 626.587 260.042 626.617C239.723 626.646 220.303 619.207 202.162 610.697C163.013 592.348 124.813 571.617 86.4517 551.687C67.1917 541.687 47.9517 531.637 28.7817 521.476C26.8847 520.471 24.9267 519.391 23.0257 518.196C22.4847 518.19 21.9437 518.178 21.4017 518.178C20.1171 518.178 18.7671 518.258 17.392 518.339C11.9916 518.658 6.20538 519 2.48074 514.625C-1.39726 510.069 -0.23726 503.574 2.60374 498.797C6.07074 492.965 12.0177 488.153 17.1387 483.832C22.5637 479.255 28.2737 475.016 34.0427 470.884C40.6997 466.115 47.5187 461.495 54.0927 456.572C54.4527 456.023 54.8167 455.475 55.1617 454.917C61.5817 444.497 65.6617 432.517 66.7317 420.297C64.3317 417.287 62.0417 414.178 59.9517 410.937C37.1517 375.537 24.6217 332.566 20.2627 290.957C15.8817 249.157 20.6617 205.867 35.2417 166.377C60.2517 98.5983 113.662 40.1073 181.353 13.5073C213.702 0.797307 249.152 -3.51269 283.393 3.02731ZM234.853 114.307C217.382 125.396 200.842 138.537 185.452 152.348C156.272 178.537 131.002 210.547 121.712 249.348C121.553 250.017 121.393 250.687 121.242 251.357C149.303 223.896 177.982 197.207 207.292 171.087C222.542 157.497 237.872 144.007 253.152 130.447C260.912 123.566 268.792 116.807 276.652 110.037C280.582 106.657 284.513 103.267 288.452 99.8963C289.862 98.6873 291.252 97.3873 292.712 96.2173C271.842 96.3773 252.532 103.087 234.853 114.307ZM306.092 97.9073C306.192 97.6073 306.263 97.3163 306.303 97.0373C346.353 102.257 379.803 131.726 390.862 170.527C389.902 171.867 389.372 173.457 389.572 175.146C389.672 175.997 389.772 176.857 389.872 177.707C388.502 176.348 387.092 175.077 385.893 173.867C381.902 169.827 377.813 165.896 373.612 162.066C365.022 154.237 356.103 146.917 346.702 140.087C330.353 128.207 312.652 117.287 293.162 111.587C294.442 110.537 295.723 109.487 297.013 108.447C300.862 105.316 304.433 102.737 306.092 97.9073ZM318.342 433.587C290.702 449.017 259.053 449.617 229.322 439.907C211.492 434.098 195.143 425.117 179.842 414.377C166.532 405.027 154.652 394.657 142.882 383.646C133.192 362.277 124.563 340.947 120.522 317.697C116.902 296.827 116.422 275.157 120.622 254.327C151.683 228.777 182.553 203.017 213.382 177.178C229.082 164.017 244.822 150.928 260.752 138.047C268.842 131.507 276.853 124.867 284.912 118.297C286.242 117.217 287.563 116.137 288.893 115.057C305.532 127.237 323.372 137.678 339.893 150.057C348.542 156.547 356.952 163.457 364.962 170.726C369.162 174.537 373.263 178.467 377.263 182.497C380.922 186.178 384.452 191.457 389.643 192.848C390.353 193.037 391.022 193.077 391.652 192.987C398.592 253.747 403.522 319.357 373.792 374.537C360.822 398.607 342.433 420.127 318.342 433.587ZM144.189 450.26C140.399 446.788 134.727 452.431 138.533 455.918C163.347 478.647 195.605 491.103 228.426 496.689C233.462 497.547 235.625 489.84 230.553 488.975C199.117 483.625 167.995 472.066 144.189 450.26ZM109.967 489.375C105.423 486.937 109.468 480.034 114.004 482.467C132.551 492.414 152.894 497.582 173.528 501.072C178.603 501.93 176.438 509.637 171.402 508.786C150.067 505.178 129.132 499.653 109.967 489.375Z" transform="translate(3.00046 36.99949)" fill="#000000" fill-rule="evenodd" stroke="none"></path></g></g><g transform="translate(159 186)"><g><path d="M145.63 0.473197L144.193 0.179116C142.503 -0.15929 140.804 -0.0161244 139.311 0.591153C137.847 1.18684 136.572 2.2242 135.68 3.72083C134.495 5.71373 134.337 7.38618 134.887 9.59525C135.311 11.3022 136.242 12.5864 137.46 13.5139C138.744 14.4911 140.37 15.0612 142.06 15.2595C149.854 16.175 157.53 17.8896 164.992 20.3235C168.488 21.4643 171.788 23.0096 175.058 24.6132L177.877 26.002C180.477 27.2735 183.163 28.499 186.557 29.3885C186.824 29.4584 187.087 29.5243 187.349 29.5865C188.29 29.2909 188.45 28.9329 188.649 28.6733L188.73 28.5721C188.972 28.2679 189.271 27.8025 188.988 25.6306C181.733 10.5814 162.083 4.00922 146.583 0.675332L145.63 0.473197ZM43.5878 4.83023L45.4652 4.50163L46.4275 4.33853C52.0515 3.40866 58.7184 2.78671 62.6028 7.20123C64.7819 9.67723 65.5318 14.2792 62.6028 16.6492C58.7671 19.7539 54.6298 19.6513 50.2182 19.5419C48.7043 19.5044 47.1582 19.466 45.5808 19.5562C40.4928 19.8482 35.6028 20.6902 30.7018 22.0912C19.9498 25.1642 11.1888 30.7742 2.00585 36.9342C0.800849 37.7422 -0.429151 36.2012 0.145849 35.0742C5.44685 24.6912 15.7198 16.1622 26.0098 10.9632C31.5019 8.18823 37.5118 5.88623 43.5878 4.83023ZM52.2374 50.7155C50.6929 49.6018 48.9969 48.9999 47.2237 48.9999C45.4506 48.9999 43.7546 49.6018 42.2101 50.7155C40.69 51.8116 39.3138 53.4113 38.1676 55.4066C35.9987 59.1823 34.6427 64.3956 34.6427 70.1599C34.6427 75.9243 35.9987 81.1376 38.1676 84.9133C39.3138 86.9085 40.69 88.5083 42.2101 89.6044C43.7546 90.7181 45.4506 91.3199 47.2237 91.3199C48.9969 91.3199 50.6929 90.7181 52.2374 89.6044C53.7575 88.5083 55.1337 86.9085 56.2799 84.9133C58.4488 81.1376 59.8047 75.9243 59.8047 70.1599C59.8047 64.3956 58.4488 59.1823 56.2799 55.4066C55.1337 53.4113 53.7575 51.8116 52.2374 50.7155ZM159.464 48.9999C161.237 48.9999 162.933 49.6018 164.478 50.7155C165.998 51.8116 167.374 53.4113 168.52 55.4066C170.689 59.1823 172.045 64.3956 172.045 70.1599C172.045 75.9243 170.689 81.1376 168.52 84.9133C167.374 86.9085 165.998 88.5083 164.478 89.6044C162.933 90.7181 161.237 91.3199 159.464 91.3199C157.691 91.3199 155.995 90.7181 154.45 89.6044C152.93 88.5083 151.554 86.9085 150.408 84.9133C148.239 81.1376 146.883 75.9243 146.883 70.1599C146.883 64.3956 148.239 59.1823 150.408 55.4066C151.554 53.4113 152.93 51.8116 154.45 50.7155C155.995 49.6018 157.691 48.9999 159.464 48.9999Z" transform="translate(59.00005 52.00027)" fill="#000000" fill-rule="evenodd" stroke="none"></path></g></g><g transform="translate(123 338)"></g><g transform="translate(47 241)"></g></g></g></svg>